<svg width="32" height="32" viewBox="0 0 32 32" fill="none" xmlns="http://www.w3.org/2000/svg">
<path d="M24.0355 13.6334L26.4021 16L16 26.4021L5.59791 16L8.112 13.4859L5.31339 10.6866L0 16L16 32L32 16L26.8341 10.8341L24.0355 13.6334Z" fill="url(#paint0_linear_524_469)"/>
<path d="M17.8254 1.82539L16 0L14.1746 1.82539L16 3.65078L17.8254 1.82539Z" fill="url(#paint1_linear_524_469)"/>
<path d="M18.7986 2.79861L16 5.59791L13.2014 2.79861L7.18191 8.81739L9.98122 11.6167L13.8365 7.76139L16 26.4021L18.1635 7.76139L22.1663 11.7642L24.9649 8.96487L18.7986 2.79861Z" fill="url(#paint2_linear_524_469)"/>
<defs>
<linearGradient id="paint0_linear_524_469" x1="16" y1="0" x2="16" y2="32" gradientUnits="userSpaceOnUse">
<stop stop-color="#725BFF"/>
<stop offset="1" stop-color="#4791FF"/>
</linearGradient>
<linearGradient id="paint1_linear_524_469" x1="16" y1="0" x2="16" y2="32" gradientUnits="userSpaceOnUse">
<stop stop-color="#725BFF"/>
<stop offset="1" stop-color="#4791FF"/>
</linearGradient>
<linearGradient id="paint2_linear_524_469" x1="16" y1="0" x2="16" y2="32" gradientUnits="userSpaceOnUse">
<stop stop-color="#725BFF"/>
<stop offset="1" stop-color="#4791FF"/>
</linearGradient>
</defs>
</svg>
