<svg width="77" height="77" viewBox="0 0 77 77" fill="none" xmlns="http://www.w3.org/2000/svg">
<g clip-path="url(#clip0_100_1982)">
<path d="M48.4988 40.9245V29.0884H50.9265V40.9245H48.4988Z" fill="white" fill-opacity="0.51"/>
<path d="M20.2046 44.4402H15V32.604H19.9953C22.4231 32.604 23.8377 33.9006 23.8377 35.9289C23.8377 37.2418 22.9292 38.0902 22.3003 38.3727C23.0509 38.705 24.0117 39.4529 24.0117 41.0329C24.0117 43.2432 22.4231 44.4402 20.2046 44.4402ZM19.8032 34.6657H17.4277V37.3921H19.8032C20.8335 37.3921 21.4099 36.8434 21.4099 36.0284C21.4099 35.2144 20.8335 34.6657 19.8032 34.6657ZM19.9601 39.4701H17.4277V42.3793H19.9601C21.0608 42.3793 21.584 41.7148 21.584 40.9161C21.584 40.1184 21.0598 39.4701 19.9601 39.4701Z" fill="white"/>
<path d="M31.4166 39.586V44.4402H29.006V39.586L25.2683 32.604H27.9053L30.2284 37.3748L32.5164 32.604H35.1534L31.4166 39.586Z" fill="white"/>
<path d="M42.0362 44.4402H36.8315V32.604H41.8269C44.2546 32.604 45.6692 33.9006 45.6692 35.9289C45.6692 37.2418 44.7607 38.0902 44.1319 38.3727C44.8825 38.705 45.8433 39.4529 45.8433 41.0329C45.8433 43.2432 44.2546 44.4402 42.0362 44.4402ZM41.6347 34.6657H39.2593V37.3921H41.6347C42.665 37.3921 43.2415 36.8434 43.2415 36.0284C43.2415 35.2144 42.665 34.6657 41.6347 34.6657ZM41.7917 39.4701H39.2593V42.3793H41.7917C42.8923 42.3793 43.4155 41.7148 43.4155 40.9161C43.4155 40.1184 42.8923 39.4701 41.7917 39.4701Z" fill="white"/>
<path d="M58.7512 34.6657V44.4411H56.3234V34.6657H53.0747V32.604H61.9999V34.6657H58.7512Z" fill="white"/>
</g>
<circle cx="38.5" cy="38.5" r="38.5" fill="white" fill-opacity="0.1"/>
<defs>
<clipPath id="clip0_100_1982">
<rect width="47" height="16" fill="white" transform="translate(15 30)"/>
</clipPath>
</defs>
</svg>
