<svg width="45" height="45" viewBox="0 0 45 45" fill="none" xmlns="http://www.w3.org/2000/svg">
<circle cx="22.5" cy="22.5" r="22.5" fill="white" fill-opacity="0.1"/>
<path d="M21.4494 18.1847C20.5514 18.4303 20.0101 19.1194 20.0101 19.7704C20.0101 20.4214 20.5514 21.1105 21.4494 21.3561V18.1847Z" fill="white"/>
<path d="M22.8887 22.9825V26.1539C23.7868 25.9083 24.3281 25.2192 24.3281 24.5682C24.3281 23.9172 23.7868 23.2281 22.8887 22.9825Z" fill="white"/>
<path fill-rule="evenodd" clip-rule="evenodd" d="M31.7647 22.1693C31.7647 27.4688 27.4686 31.7649 22.1691 31.7649C16.8696 31.7649 12.5735 27.4688 12.5735 22.1693C12.5735 16.8698 16.8696 12.5737 22.1691 12.5737C27.4686 12.5737 31.7647 16.8698 31.7647 22.1693ZM22.1691 15.6923C22.5665 15.6923 22.8887 16.0145 22.8887 16.412V16.7159C24.4532 16.996 25.7674 18.1714 25.7674 19.7704C25.7674 20.1679 25.4452 20.4901 25.0478 20.4901C24.6503 20.4901 24.3281 20.1679 24.3281 19.7704C24.3281 19.1194 23.7868 18.4303 22.8887 18.1847V21.5137C24.4532 21.7938 25.7674 22.9692 25.7674 24.5682C25.7674 26.1672 24.4532 27.3426 22.8887 27.6227V27.9267C22.8887 28.3241 22.5665 28.6463 22.1691 28.6463C21.7716 28.6463 21.4494 28.3241 21.4494 27.9267V27.6227C19.8849 27.3426 18.5707 26.1672 18.5707 24.5682C18.5707 24.1708 18.8929 23.8485 19.2904 23.8485C19.6879 23.8485 20.0101 24.1708 20.0101 24.5682C20.0101 25.2192 20.5514 25.9083 21.4494 26.1539V22.825C19.8849 22.5448 18.5707 21.3694 18.5707 19.7704C18.5707 18.1714 19.8849 16.996 21.4494 16.7159V16.412C21.4494 16.0145 21.7716 15.6923 22.1691 15.6923Z" fill="white"/>
</svg>
