<svg width="16" height="18" viewBox="0 0 16 18" fill="none" xmlns="http://www.w3.org/2000/svg">
<path d="M15.2001 7.84023V5.00023C13.8701 5.00023 12.8551 4.64523 12.2001 3.95523C11.5278 3.16776 11.1512 2.17051 11.1351 1.13523V0.930234L8.45005 0.865234C8.45005 0.865234 8.45005 0.980235 8.45005 1.13523V12.4002C8.35795 12.9035 8.11364 13.3664 7.75012 13.7265C7.3866 14.0865 6.92136 14.3263 6.41722 14.4136C5.91308 14.5008 5.3943 14.4313 4.93092 14.2144C4.46755 13.9974 4.08189 13.6436 3.82601 13.2005C3.57013 12.7574 3.45634 12.2465 3.50002 11.7368C3.5437 11.227 3.74273 10.7429 4.07025 10.3498C4.39777 9.95677 4.83801 9.67365 5.33153 9.53871C5.82505 9.40377 6.3481 9.4235 6.83005 9.59523V6.84523C6.54905 6.79919 6.2648 6.77578 5.98005 6.77523C4.95554 6.77523 3.95404 7.07904 3.1022 7.64822C2.25035 8.21741 1.58642 9.02641 1.19436 9.97293C0.802293 10.9195 0.699712 11.961 0.899583 12.9658C1.09945 13.9706 1.5928 14.8936 2.31724 15.618C3.04167 16.3425 3.96466 16.8358 4.96948 17.0357C5.9743 17.2356 7.01583 17.133 7.96235 16.7409C8.90887 16.3489 9.71788 15.6849 10.2871 14.8331C10.8563 13.9812 11.1601 12.9797 11.1601 11.9552C11.1595 11.743 11.1461 11.5309 11.1201 11.3202V6.74523C12.341 7.50771 13.7614 7.88894 15.2001 7.84023Z" fill="white" fill-opacity="0.5"/>
</svg>
