<svg width="24" height="18" viewBox="0 0 24 18" fill="none" xmlns="http://www.w3.org/2000/svg">
<path d="M23.4959 3.20321C23.3565 2.70501 23.0909 2.25124 22.7247 1.88583C22.3585 1.52042 21.9041 1.25575 21.4056 1.11746C19.5344 0.617211 12.0119 0.617212 12.0119 0.617212C12.0119 0.617212 4.50364 0.605211 2.61289 1.11746C2.11519 1.25636 1.66173 1.5213 1.29636 1.88668C0.930981 2.25206 0.666039 2.70551 0.527139 3.20321C0.171789 5.11888 -0.00322689 7.06363 0.00438858 9.01196C0.000921258 10.9509 0.175909 12.8861 0.527139 14.793C0.666488 15.2909 0.931509 15.7447 1.29676 16.1108C1.66201 16.4768 2.11522 16.7428 2.61289 16.8832C4.48414 17.3835 12.0119 17.3835 12.0119 17.3835C12.0119 17.3835 19.5156 17.3835 21.4056 16.8832C21.9041 16.7434 22.3582 16.4777 22.7243 16.1116C23.0903 15.7455 23.3561 15.2914 23.4959 14.793C23.8401 12.8872 24.0081 10.9492 23.9961 9.01196C24.0081 7.06196 23.8439 5.12096 23.4959 3.20321ZM9.60889 12.6022V5.40596L15.8706 9.01196L9.60889 12.6022Z" fill="white" fill-opacity="0.5"/>
</svg>
