<svg width="1640" height="1226" viewBox="0 0 1640 1226" fill="none" xmlns="http://www.w3.org/2000/svg">
<g style="mix-blend-mode:color-dodge" filter="url(#filter0_f_425_371)">
<path d="M936.474 846.732C1134.55 899.798 1372.2 795.522 1467.28 613.826V613.826C1562.35 432.13 1478.84 241.819 1280.76 188.753L1080.42 135.083C882.342 82.018 644.693 186.294 549.62 367.99V367.99C454.548 549.685 538.053 739.997 736.135 793.062L936.474 846.732Z" fill="url(#paint0_radial_425_371)"/>
</g>
<g style="mix-blend-mode:color-dodge" filter="url(#filter1_f_425_371)">
<path d="M626.997 1012.15C825.079 1065.22 1062.73 960.943 1157.8 779.247V779.247C1252.87 597.551 1169.37 407.24 971.285 354.174L770.947 300.504C572.865 247.439 335.217 351.715 240.144 533.411V533.411C145.072 715.107 228.577 905.418 426.658 958.483L626.997 1012.15Z" fill="url(#paint1_radial_425_371)"/>
</g>
<g opacity="0.6" filter="url(#filter2_f_425_371)">
<path d="M1011.14 694.25C1054.89 677.542 1067.17 633.933 1038.58 596.846L977.437 517.549C948.841 480.462 890.193 463.942 846.444 480.65L711.69 532.113C667.94 548.821 655.656 592.43 684.252 629.517L745.393 708.813C773.989 745.9 832.636 762.421 876.386 745.713L1011.14 694.25Z" fill="url(#paint2_radial_425_371)"/>
</g>
<g style="mix-blend-mode:color-dodge" opacity="0.6" filter="url(#filter3_f_425_371)">
<path d="M964.611 565.185C993.17 544.871 1005.31 502.212 991.73 469.904L946.767 362.945C933.185 330.637 899.024 320.914 870.465 341.228L720.627 447.808C692.068 468.122 679.926 510.78 693.508 543.089L738.471 650.048C752.052 682.356 786.214 692.079 814.773 671.765L964.611 565.185Z" fill="url(#paint3_radial_425_371)"/>
</g>
<g style="mix-blend-mode:color-dodge" opacity="0.6" filter="url(#filter4_f_425_371)">
<path d="M868.79 650.51C912.737 619.25 931.421 553.606 910.522 503.89V503.89C889.622 454.173 837.053 439.211 793.106 470.471L748.658 502.087C704.711 533.346 686.027 598.99 706.927 648.707V648.707C727.826 698.423 780.395 713.386 824.342 682.126L868.79 650.51Z" fill="url(#paint4_radial_425_371)"/>
</g>
<g style="mix-blend-mode:color-dodge" opacity="0.6" filter="url(#filter5_f_425_371)">
<path d="M850.465 740.959C894.412 709.7 913.096 644.055 892.197 594.339V594.339C871.297 544.623 818.729 529.66 774.781 560.92L730.333 592.536C686.386 623.796 667.702 689.44 688.602 739.156V739.156C709.502 788.873 762.07 803.835 806.017 772.575L850.465 740.959Z" fill="url(#paint5_radial_425_371)"/>
</g>
<defs>
<filter id="filter0_f_425_371" x="389.71" y="0.604355" width="1237.48" height="980.607" filterUnits="userSpaceOnUse" color-interpolation-filters="sRGB">
<feFlood flood-opacity="0" result="BackgroundImageFix"/>
<feBlend mode="normal" in="SourceGraphic" in2="BackgroundImageFix" result="shape"/>
<feGaussianBlur stdDeviation="60.323" result="effect1_foregroundBlur_425_371"/>
</filter>
<filter id="filter1_f_425_371" x="0.879639" y="86.6714" width="1396.18" height="1139.31" filterUnits="userSpaceOnUse" color-interpolation-filters="sRGB">
<feFlood flood-opacity="0" result="BackgroundImageFix"/>
<feBlend mode="normal" in="SourceGraphic" in2="BackgroundImageFix" result="shape"/>
<feGaussianBlur stdDeviation="100" result="effect1_foregroundBlur_425_371"/>
</filter>
<filter id="filter2_f_425_371" x="616.222" y="421.533" width="490.386" height="383.296" filterUnits="userSpaceOnUse" color-interpolation-filters="sRGB">
<feFlood flood-opacity="0" result="BackgroundImageFix"/>
<feBlend mode="normal" in="SourceGraphic" in2="BackgroundImageFix" result="shape"/>
<feGaussianBlur stdDeviation="26.2991" result="effect1_foregroundBlur_425_371"/>
</filter>
<filter id="filter3_f_425_371" x="656.216" y="298.887" width="372.805" height="415.218" filterUnits="userSpaceOnUse" color-interpolation-filters="sRGB">
<feFlood flood-opacity="0" result="BackgroundImageFix"/>
<feBlend mode="normal" in="SourceGraphic" in2="BackgroundImageFix" result="shape"/>
<feGaussianBlur stdDeviation="15.8644" result="effect1_foregroundBlur_425_371"/>
</filter>
<filter id="filter4_f_425_371" x="666.638" y="422.412" width="284.173" height="307.772" filterUnits="userSpaceOnUse" color-interpolation-filters="sRGB">
<feFlood flood-opacity="0" result="BackgroundImageFix"/>
<feBlend mode="normal" in="SourceGraphic" in2="BackgroundImageFix" result="shape"/>
<feGaussianBlur stdDeviation="15.8644" result="effect1_foregroundBlur_425_371"/>
</filter>
<filter id="filter5_f_425_371" x="627.443" y="491.992" width="325.912" height="349.511" filterUnits="userSpaceOnUse" color-interpolation-filters="sRGB">
<feFlood flood-opacity="0" result="BackgroundImageFix"/>
<feBlend mode="normal" in="SourceGraphic" in2="BackgroundImageFix" result="shape"/>
<feGaussianBlur stdDeviation="26.2991" result="effect1_foregroundBlur_425_371"/>
</filter>
<radialGradient id="paint0_radial_425_371" cx="0" cy="0" r="1" gradientUnits="userSpaceOnUse" gradientTransform="translate(875.891 604.063) rotate(-144.112) scale(402.72 383.339)">
<stop stop-color="#444CE4"/>
<stop offset="1" stop-color="#037E82"/>
</radialGradient>
<radialGradient id="paint1_radial_425_371" cx="0" cy="0" r="1" gradientUnits="userSpaceOnUse" gradientTransform="translate(566.414 769.484) rotate(-144.112) scale(402.72 383.339)">
<stop stop-color="#444CE4"/>
<stop offset="1" stop-color="#037E82"/>
</radialGradient>
<radialGradient id="paint2_radial_425_371" cx="0" cy="0" r="1" gradientUnits="userSpaceOnUse" gradientTransform="translate(841.758 634.531) rotate(-151.764) scale(161.552 136.968)">
<stop stop-color="#7A5AF8"/>
<stop offset="1" stop-color="#E888F8" stop-opacity="0"/>
</radialGradient>
<radialGradient id="paint3_radial_425_371" cx="0" cy="0" r="1" gradientUnits="userSpaceOnUse" gradientTransform="translate(884.163 430.4) rotate(109.752) scale(141.468 112.558)">
<stop stop-color="#F257A0"/>
<stop offset="1" stop-color="#484EB7" stop-opacity="0"/>
<stop offset="1" stop-color="#D03F92" stop-opacity="0"/>
</radialGradient>
<radialGradient id="paint4_radial_425_371" cx="0" cy="0" r="1" gradientUnits="userSpaceOnUse" gradientTransform="translate(809.45 622.128) rotate(165.466) scale(105.912 100.815)">
<stop stop-color="#444CE4"/>
<stop offset="1" stop-color="#037E82"/>
</radialGradient>
<radialGradient id="paint5_radial_425_371" cx="0" cy="0" r="1" gradientUnits="userSpaceOnUse" gradientTransform="translate(791.125 712.578) rotate(165.466) scale(105.912 100.815)">
<stop stop-color="#444CE4"/>
<stop offset="1" stop-color="#037E82"/>
</radialGradient>
</defs>
</svg>
