<svg width="34" height="34" viewBox="0 0 34 34" fill="none" xmlns="http://www.w3.org/2000/svg">
<path d="M19.3455 13.094V9.86876H26.6828V4.77954H6.31565V9.86876H13.6736V13.094C7.50933 13.3905 2.88159 14.628 2.88159 16.1104C2.88159 17.5928 7.50417 18.8226 13.6736 19.1268V29.7719H19.3455V19.1268C25.5098 18.8329 30.1375 17.5954 30.1375 16.1104C30.1375 14.6254 25.515 13.3905 19.3455 13.094ZM16.5096 18.1626C9.83479 18.1626 4.42331 17.1313 4.42331 15.8887C4.42331 14.8188 8.36526 13.9216 13.6685 13.6818V17.3247C14.5811 17.3659 15.5299 17.3892 16.5044 17.3892C17.4789 17.3892 18.4328 17.3659 19.3403 17.3247V13.6818C24.6435 13.9216 28.5855 14.8188 28.5855 15.8887C28.5958 17.1442 23.1843 18.1626 16.5096 18.1626Z" fill="white"/>
</svg>
