<svg width="52" height="52" viewBox="0 0 52 52" fill="none" xmlns="http://www.w3.org/2000/svg">
<rect x="0.5" y="0.5" width="51" height="51" rx="12.5" fill="url(#paint0_linear_176_457)" fill-opacity="0.28"/>
<g clip-path="url(#clip0_176_457)">
<path d="M31.0125 28.0188L32.9812 27.85V25.0938L31.0125 24.925C30.9 24.475 30.7313 24.0812 30.5063 23.6875L31.8 22.225L29.8313 20.2562L28.3125 21.4938C27.9188 21.2688 27.4687 21.1 27.075 20.9875L26.9062 19.075H24.15L23.9812 20.9875C23.5312 21.1 23.1375 21.2688 22.7438 21.4938L21.2812 20.2562L19.3125 22.225L20.55 23.6875C20.325 24.0812 20.1563 24.5313 20.0438 24.925L18.1312 25.0938V27.85L20.0438 28.0188C20.1563 28.4688 20.325 28.9188 20.55 29.3125L19.3125 30.775L21.2812 32.7437L22.7438 31.5063C23.1375 31.7313 23.5875 31.9 23.9812 32.0125L24.15 33.925H26.9062L27.075 32.0125C27.525 31.9 27.975 31.7313 28.3125 31.5063L29.775 32.7437L31.7437 30.775L30.5063 29.3125C30.7313 28.9188 30.9 28.4688 31.0125 28.0188ZM25.5 28.8625C24.2063 28.8625 23.1375 27.7937 23.1375 26.5C23.1375 25.2063 24.2063 24.1375 25.5 24.1375C26.7937 24.1375 27.8625 25.2063 27.8625 26.5C27.8625 27.7937 26.7937 28.8625 25.5 28.8625ZM27.6937 17.275L26.7937 15.9813C29.4937 16.3188 31.9687 17.6687 33.7125 19.8625L34.6125 19.1312C32.7 16.7687 29.9438 15.25 26.9062 14.8562L28.2562 13.9L27.6375 13L24.7125 15.025L26.7375 17.95L27.6937 17.275ZM23.3063 35.725L24.2063 37.0188C21.5063 36.6813 19.0312 35.3312 17.2875 33.1375L16.3875 33.8687C18.3 36.2875 21.0562 37.75 24.0938 38.1438L22.7438 39.1L23.4187 40.0562L26.3438 38.0312L24.3187 35.1062L23.3063 35.725ZM39 28.6375L36.975 25.7125L34.05 27.7375L34.725 28.6937L36.0188 27.7937C35.6813 30.4937 34.3312 32.9687 32.1375 34.7125L32.8687 35.6125C35.2875 33.7 36.75 30.9438 37.1438 27.9062L38.1 29.2562L39 28.6375ZM16.275 24.4187L14.9813 25.3187C15.2625 22.5625 16.6687 20.0312 18.8625 18.2875L18.1312 17.3875C15.7125 19.3563 14.1937 22.1125 13.8562 25.15L12.9 23.8L12 24.475L14.025 27.4L16.95 25.375L16.275 24.4187Z" fill="#20F2FF"/>
</g>
<rect x="0.5" y="0.5" width="51" height="51" rx="12.5" stroke="url(#paint1_linear_176_457)"/>
<defs>
<linearGradient id="paint0_linear_176_457" x1="1.38294e-06" y1="-5.5" x2="41" y2="63.5" gradientUnits="userSpaceOnUse">
<stop stop-color="#4EFDFD"/>
<stop offset="1" stop-color="#1246FF"/>
</linearGradient>
<linearGradient id="paint1_linear_176_457" x1="26" y1="0" x2="26" y2="52" gradientUnits="userSpaceOnUse">
<stop stop-color="#20D2F9" stop-opacity="0.3"/>
<stop offset="1" stop-color="#20D2F9" stop-opacity="0"/>
</linearGradient>
<clipPath id="clip0_176_457">
<rect width="27" height="27" fill="white" transform="translate(12 13)"/>
</clipPath>
</defs>
</svg>
