<svg width="52" height="52" viewBox="0 0 52 52" fill="none" xmlns="http://www.w3.org/2000/svg">
<rect x="0.5" y="0.5" width="51" height="51" rx="12.5" fill="url(#paint0_linear_176_453)" fill-opacity="0.28"/>
<path d="M14.4267 31.736V25.1973C13.4401 25.3093 12.6667 26.152 12.6667 27.1707V29.7573C12.6667 30.776 13.4401 31.624 14.4267 31.736ZM37.5734 25.1973V31.736C38.5654 31.6187 39.3334 30.776 39.3334 29.7573V27.1707C39.3334 26.152 38.5654 25.3093 37.5734 25.1973ZM36.5067 33.4373V25.112C36.5067 23.736 35.5894 22.5307 34.2827 22.168C31.7441 21.4693 29.1414 21.1067 26.5334 21.0587V18.5307C27.6801 18.2853 28.5441 17.2667 28.5441 16.0453C28.5441 14.6427 27.4027 13.5013 26.0001 13.5013C24.5974 13.5013 23.4561 14.6427 23.4561 16.0453C23.4561 17.2667 24.3201 18.2853 25.4667 18.5307V21.0587C22.8587 21.1013 20.2561 21.4693 17.7174 22.168C16.4107 22.5307 15.4934 23.736 15.4934 25.112V33.4373C15.4934 35.1173 16.8641 36.488 18.5441 36.488H33.4561C35.1361 36.488 36.5067 35.1173 36.5067 33.4373ZM24.5227 16.0507C24.5227 15.2347 25.1841 14.5733 26.0001 14.5733C26.8161 14.5733 27.4774 15.2347 27.4774 16.0507C27.4774 16.8667 26.8161 17.528 26.0001 17.528C25.1841 17.528 24.5227 16.8667 24.5227 16.0507ZM19.7814 27.3787C19.7814 26.12 20.8054 25.096 22.0641 25.096C23.3227 25.096 24.3467 26.12 24.3467 27.3787C24.3467 28.6373 23.3227 29.6613 22.0641 29.6613C20.8054 29.6613 19.7814 28.6373 19.7814 27.3787ZM29.2267 32.872C28.1547 33.2987 27.0774 33.512 26.0001 33.512C24.9227 33.512 23.8454 33.2987 22.7734 32.872C22.5014 32.76 22.3681 32.4507 22.4747 32.1787C22.5814 31.9067 22.8907 31.7733 23.1681 31.88C25.0721 32.6427 26.9227 32.6427 28.8267 31.88C29.1041 31.768 29.4081 31.9013 29.5201 32.1787C29.6321 32.4507 29.4987 32.76 29.2267 32.872ZM29.9361 29.6613C28.6774 29.6613 27.6534 28.6373 27.6534 27.3787C27.6534 26.12 28.6774 25.096 29.9361 25.096C31.1947 25.096 32.2187 26.12 32.2187 27.3787C32.2187 28.6373 31.1947 29.6613 29.9361 29.6613Z" fill="#20F2FF"/>
<rect x="0.5" y="0.5" width="51" height="51" rx="12.5" stroke="url(#paint1_linear_176_453)"/>
<defs>
<linearGradient id="paint0_linear_176_453" x1="1.38294e-06" y1="-5.5" x2="41" y2="63.5" gradientUnits="userSpaceOnUse">
<stop stop-color="#4EFDFD"/>
<stop offset="1" stop-color="#1246FF"/>
</linearGradient>
<linearGradient id="paint1_linear_176_453" x1="26" y1="0" x2="26" y2="52" gradientUnits="userSpaceOnUse">
<stop stop-color="#20D2F9" stop-opacity="0.3"/>
<stop offset="1" stop-color="#20D2F9" stop-opacity="0"/>
</linearGradient>
</defs>
</svg>
