<svg width="52" height="52" viewBox="0 0 52 52" fill="none" xmlns="http://www.w3.org/2000/svg">
<rect x="0.5" y="0.5" width="51" height="51" rx="12.5" fill="url(#paint0_linear_176_449)" fill-opacity="0.28"/>
<path fill-rule="evenodd" clip-rule="evenodd" d="M37.5938 18.75C37.5938 17.3325 37.0313 15.9735 36.0289 14.9711C35.0265 13.9688 33.6675 13.4062 32.25 13.4062H18.75C17.3325 13.4062 15.9735 13.9688 14.9711 14.9711C13.9688 15.9735 13.4062 17.3325 13.4062 18.75V32.25C13.4062 33.6675 13.9688 35.0265 14.9711 36.0289C15.9735 37.0313 17.3325 37.5938 18.75 37.5938H32.25C33.6675 37.5938 35.0265 37.0313 36.0289 36.0289C37.0313 35.0265 37.5938 33.6675 37.5938 32.25V18.75ZM26.049 21.1834L23.349 29.2834C23.2028 29.7255 23.4413 30.2036 23.8834 30.351C24.3255 30.4973 24.8036 30.2588 24.951 29.8166L27.651 21.7166C27.7973 21.2745 27.5588 20.7964 27.1166 20.649C26.6745 20.5028 26.1964 20.7413 26.049 21.1834ZM28.9538 23.3963L31.0564 25.5L28.9538 27.6038C28.6241 27.9323 28.6241 28.4678 28.9538 28.7963C29.2823 29.1259 29.8178 29.1259 30.1463 28.7963L32.8463 26.0963C33.1759 25.7666 33.1759 25.2334 32.8463 24.9038L30.1463 22.2038C29.8178 21.8741 29.2823 21.8741 28.9538 22.2038C28.6241 22.5323 28.6241 23.0678 28.9538 23.3963ZM20.8538 22.2038L18.1538 24.9038C17.8241 25.2334 17.8241 25.7666 18.1538 26.0963L20.8538 28.7963C21.1823 29.1259 21.7178 29.1259 22.0463 28.7963C22.3759 28.4678 22.3759 27.9323 22.0463 27.6038L19.9436 25.5L22.0463 23.3963C22.3759 23.0678 22.3759 22.5323 22.0463 22.2038C21.7178 21.8741 21.1823 21.8741 20.8538 22.2038Z" fill="#20F2FF"/>
<rect x="0.5" y="0.5" width="51" height="51" rx="12.5" stroke="url(#paint1_linear_176_449)"/>
<defs>
<linearGradient id="paint0_linear_176_449" x1="1.38294e-06" y1="-5.5" x2="41" y2="63.5" gradientUnits="userSpaceOnUse">
<stop stop-color="#4EFDFD"/>
<stop offset="1" stop-color="#1246FF"/>
</linearGradient>
<linearGradient id="paint1_linear_176_449" x1="26" y1="0" x2="26" y2="52" gradientUnits="userSpaceOnUse">
<stop stop-color="#20D2F9" stop-opacity="0.3"/>
<stop offset="1" stop-color="#20D2F9" stop-opacity="0"/>
</linearGradient>
</defs>
</svg>
