<svg width="52" height="52" viewBox="0 0 52 52" fill="none" xmlns="http://www.w3.org/2000/svg">
<rect x="0.5" y="0.5" width="51" height="51" rx="12.5" fill="url(#paint0_linear_176_461)" fill-opacity="0.28"/>
<path d="M26.0001 20.6916C27.0834 20.2583 28.1667 20.0416 29.2501 20.0416C30.1167 20.0416 30.9834 20.15 31.7417 20.3666C29.7917 15.925 24.7001 13.975 20.3667 15.8166C16.0334 17.7666 13.9751 22.8583 15.9251 27.3C16.2501 27.95 16.5751 28.6 17.0084 29.1416L15.4917 30.6583C15.0584 31.0916 15.0584 31.7416 15.4917 32.175C15.7084 32.3916 15.9251 32.5 16.2501 32.5H20.6917C18.8501 27.7333 21.2334 22.425 26.0001 20.6916ZM36.5084 34.9916L35.3167 33.8C37.8084 30.4416 37.1584 25.675 33.8001 23.1833C30.4417 20.6916 25.6751 21.3416 23.1834 24.7C20.6917 28.0583 21.3417 32.825 24.7001 35.3166C26.0001 36.2916 27.6251 36.8333 29.2501 36.8333H35.7501C36.4001 36.8333 36.8334 36.4 36.8334 35.75C36.8334 35.425 36.7251 35.2083 36.5084 34.9916Z" fill="#20F2FF"/>
<rect x="0.5" y="0.5" width="51" height="51" rx="12.5" stroke="url(#paint1_linear_176_461)"/>
<defs>
<linearGradient id="paint0_linear_176_461" x1="1.38294e-06" y1="-5.5" x2="41" y2="63.5" gradientUnits="userSpaceOnUse">
<stop stop-color="#4EFDFD"/>
<stop offset="1" stop-color="#1246FF"/>
</linearGradient>
<linearGradient id="paint1_linear_176_461" x1="26" y1="0" x2="26" y2="52" gradientUnits="userSpaceOnUse">
<stop stop-color="#20D2F9" stop-opacity="0.3"/>
<stop offset="1" stop-color="#20D2F9" stop-opacity="0"/>
</linearGradient>
</defs>
</svg>
