<svg width="66" height="27" viewBox="0 0 66 27" fill="none" xmlns="http://www.w3.org/2000/svg">
<g clip-path="url(#clip0_132_297)">
<path d="M47.0273 19.8908V2.79407H50.3849V19.8908H47.0273Z" fill="white" fill-opacity="0.6"/>
<path d="M7.89709 24.9692H0.699219V7.87256H7.60764C10.9652 7.87256 12.9215 9.74547 12.9215 12.6751C12.9215 14.5715 11.6651 15.797 10.7954 16.2051C11.8335 16.6851 13.1623 17.7654 13.1623 20.0477C13.1623 23.2402 10.9652 24.9692 7.89709 24.9692ZM7.34189 10.8506H4.05673V14.7886H7.34189C8.76676 14.7886 9.56402 13.9961 9.56402 12.819C9.56402 11.6432 8.76676 10.8506 7.34189 10.8506ZM7.55897 17.7902H4.05673V21.9925H7.55897C9.08115 21.9925 9.80475 21.0325 9.80475 19.879C9.80475 18.7267 9.07981 17.7902 7.55897 17.7902Z" fill="white" fill-opacity="0.6"/>
<path d="M23.4031 17.9576V24.9692H20.0693V17.9576L14.9001 7.87256H18.5471L21.7599 14.7638L24.924 7.87256H28.571L23.4031 17.9576Z" fill="white" fill-opacity="0.6"/>
<path d="M38.0897 24.9692H30.8918V7.87256H37.8003C41.1578 7.87256 43.1142 9.74547 43.1142 12.6751C43.1142 14.5715 41.8577 15.797 40.9881 16.2051C42.0261 16.6851 43.355 17.7654 43.355 20.0477C43.355 23.2402 41.1578 24.9692 38.0897 24.9692ZM37.5345 10.8506H34.2494V14.7886H37.5345C38.9594 14.7886 39.7567 13.9961 39.7567 12.819C39.7567 11.6432 38.9594 10.8506 37.5345 10.8506ZM37.7516 17.7902H34.2494V21.9925H37.7516C39.2738 21.9925 39.9974 21.0325 39.9974 19.879C39.9974 18.7267 39.2738 17.7902 37.7516 17.7902Z" fill="white" fill-opacity="0.6"/>
<path d="M61.2059 10.8506V24.9705H57.8484V10.8506H53.3555V7.87256H65.6988V10.8506H61.2059Z" fill="white" fill-opacity="0.6"/>
</g>
<defs>
<clipPath id="clip0_132_297">
<rect width="65" height="26" fill="white" transform="translate(0.699219 0.5)"/>
</clipPath>
</defs>
</svg>
