<svg width="144" height="27" viewBox="0 0 144 27" fill="none" xmlns="http://www.w3.org/2000/svg">
<path d="M21.4181 8.52953H13.2354L10.7165 0.708618L8.18271 8.52953L0 8.51455L6.61771 13.3539L4.0839 21.1748L10.7016 16.3355L17.3193 21.1748L14.8004 13.3539L21.4181 8.52953Z" fill="white" fill-opacity="0.6"/>
<path d="M24.8559 0.708618H41.1194V3.74842H34.7158V20.8843H31.2059V3.74842H24.8291L24.8559 0.708618ZM40.4228 6.27711H43.4236V9.1017H43.4772C43.5844 8.69819 43.772 8.32158 44.0399 7.94497C44.3078 7.56835 44.6293 7.21864 45.0312 6.92273C45.4064 6.59992 45.835 6.35781 46.3173 6.1695C46.7728 5.9812 47.2551 5.87359 47.7374 5.87359C48.1125 5.87359 48.3804 5.90049 48.5144 5.90049C48.6483 5.9274 48.8091 5.9543 48.9431 5.9543V9.04791C48.7287 8.9941 48.4876 8.9672 48.2464 8.9403C48.0053 8.91339 47.791 8.8865 47.5498 8.8865C47.0139 8.8865 46.5049 8.9941 46.0226 9.2093C45.5403 9.42451 45.1384 9.74732 44.7633 10.1508C44.415 10.5813 44.1203 11.0924 43.9059 11.7111C43.6916 12.3298 43.5844 13.0561 43.5844 13.8632V20.8036H40.3692L40.4228 6.27711ZM63.6794 20.8843H60.5178V18.8398H60.4642C60.0623 19.5931 59.4728 20.158 58.6958 20.6153C57.9188 21.0726 57.115 21.2878 56.3112 21.2878C54.4089 21.2878 53.0156 20.8305 52.1583 19.8621C51.3009 18.9205 50.8722 17.4679 50.8722 15.5579V6.27711H54.0874V15.2351C54.0874 16.5264 54.3285 17.441 54.8376 17.9521C55.3199 18.4901 56.0165 18.7591 56.9007 18.7591C57.5705 18.7591 58.1332 18.6515 58.5887 18.4363C59.0441 18.2211 59.4192 17.9521 59.6872 17.6024C59.9819 17.2527 60.1695 16.8223 60.3034 16.3381C60.4374 15.8538 60.491 15.3158 60.491 14.7509V6.27711H63.7062V20.8843H63.6794ZM69.1452 16.2035C69.2524 17.1451 69.6007 17.7907 70.2169 18.1942C70.8332 18.5708 71.5834 18.7591 72.4408 18.7591C72.7355 18.7591 73.0838 18.7322 73.4589 18.6784C73.834 18.6246 74.2091 18.5439 74.5307 18.4094C74.879 18.2749 75.1469 18.0866 75.3613 17.8176C75.5756 17.5486 75.6828 17.2258 75.656 16.8223C75.6292 16.4188 75.4952 16.069 75.2005 15.8C74.9058 15.531 74.5575 15.3427 74.1288 15.1544C73.7001 14.993 73.191 14.8585 72.6283 14.7509C72.0657 14.6433 71.503 14.5088 70.9136 14.3743C70.3241 14.2398 69.7347 14.0784 69.172 13.8901C68.6093 13.7018 68.1271 13.4597 67.6716 13.1099C67.2429 12.7871 66.8678 12.3836 66.6266 11.8725C66.3587 11.3614 66.2247 10.7696 66.2247 10.0163C66.2247 9.2093 66.4123 8.56368 66.8142 8.02567C67.1893 7.48765 67.6984 7.05724 68.2878 6.73442C68.8773 6.41161 69.5471 6.1695 70.2705 6.035C70.9939 5.90049 71.6906 5.84669 72.3336 5.84669C73.0838 5.84669 73.8072 5.9274 74.4771 6.0888C75.1469 6.25021 75.7899 6.49232 76.3258 6.86893C76.8885 7.21864 77.344 7.70285 77.6923 8.26777C78.0674 8.83269 78.2817 9.53212 78.3889 10.3391H75.0397C74.879 9.55902 74.5307 9.04791 73.9948 8.7789C73.4321 8.50989 72.8159 8.37538 72.0925 8.37538C71.8781 8.37538 71.5834 8.40228 71.2887 8.42918C70.9672 8.48298 70.6992 8.53679 70.4045 8.64439C70.1366 8.752 69.8954 8.9134 69.7079 9.1017C69.5203 9.29001 69.4131 9.55902 69.4131 9.88183C69.4131 10.2853 69.5471 10.5813 69.815 10.8234C70.083 11.0655 70.4313 11.2538 70.8868 11.4421C71.3155 11.6035 71.8245 11.738 72.3872 11.8456C72.9499 11.9532 73.5393 12.0877 74.1288 12.2222C74.7182 12.3567 75.2809 12.5181 75.8435 12.7064C76.4062 12.8947 76.9153 13.1368 77.344 13.4866C77.7727 13.8094 78.1478 14.2129 78.4157 14.6971C78.6836 15.1813 78.8176 15.8 78.8176 16.4995C78.8176 17.3603 78.63 18.0866 78.2281 18.7053C77.8262 19.2972 77.3172 19.8083 76.7009 20.1849C76.0847 20.5615 75.3613 20.8305 74.611 21.0188C73.834 21.1802 73.0838 21.2878 72.3336 21.2878C71.4226 21.2878 70.5653 21.1802 69.7882 20.965C69.0112 20.7498 68.3146 20.427 67.752 20.0235C67.1893 19.5931 66.7338 19.082 66.4123 18.4363C66.0908 17.8176 65.9032 17.0644 65.8764 16.1767H69.1184V16.2035H69.1452ZM79.7286 6.27711H82.1668V1.86535H85.382V6.2502H88.2756V8.64439H85.382V16.4457C85.382 16.7954 85.4087 17.0644 85.4355 17.3334C85.4623 17.5755 85.5427 17.7907 85.6231 17.9521C85.7303 18.1135 85.891 18.248 86.0786 18.3287C86.2929 18.4094 86.5609 18.4632 86.936 18.4632C87.1503 18.4632 87.3914 18.4632 87.6058 18.4363C87.8201 18.4094 88.0613 18.3825 88.2756 18.3287V20.8305C87.9273 20.8843 87.579 20.9112 87.2307 20.9381C86.8824 20.9919 86.5609 20.9919 86.1857 20.9919C85.3284 20.9919 84.6585 20.9112 84.1495 20.7498C83.6404 20.5884 83.2385 20.3463 82.9438 20.0504C82.649 19.7276 82.4615 19.351 82.3543 18.8936C82.2471 18.4363 82.1935 17.8714 82.1668 17.2796V8.67129H79.7286V6.22331V6.27711ZM90.5263 6.27711H93.5539V8.26777H93.6075C94.063 7.40694 94.6792 6.81513 95.483 6.43851C96.2868 6.0619 97.1442 5.87359 98.1088 5.87359C99.2609 5.87359 100.252 6.0619 101.11 6.49232C101.967 6.89583 102.664 7.43385 103.226 8.16017C103.789 8.85959 104.218 9.69353 104.486 10.6351C104.753 11.5766 104.914 12.5988 104.914 13.648C104.914 14.6433 104.78 15.5848 104.539 16.4995C104.271 17.4141 103.896 18.248 103.387 18.9474C102.878 19.6469 102.235 20.2118 101.431 20.6422C100.627 21.0726 99.7164 21.2878 98.6446 21.2878C98.1891 21.2878 97.7069 21.234 97.2514 21.1533C96.7959 21.0726 96.3404 20.9381 95.9117 20.7498C95.483 20.5615 95.0811 20.3194 94.7328 20.0235C94.3577 19.7276 94.063 19.3779 93.8218 19.0012H93.7682V26.2914H90.5531V6.27711H90.5263ZM101.753 13.5942C101.753 12.9485 101.672 12.3029 101.485 11.6842C101.324 11.0655 101.056 10.5275 100.708 10.0432C100.359 9.55902 99.9307 9.18241 99.4484 8.8865C98.9394 8.59059 98.3499 8.45608 97.7069 8.45608C96.3672 8.45608 95.3491 8.9134 94.6524 9.85493C93.9826 10.7965 93.6343 12.0608 93.6343 13.6211C93.6343 14.3743 93.7147 15.0468 93.9022 15.6655C94.0898 16.2842 94.3309 16.8223 94.706 17.2796C95.0543 17.7369 95.483 18.0866 95.9921 18.3556C96.5012 18.6246 97.0638 18.7591 97.7337 18.7591C98.4839 18.7591 99.0733 18.5977 99.5824 18.3018C100.091 18.0059 100.493 17.6024 100.842 17.1451C101.163 16.6609 101.404 16.1229 101.538 15.5041C101.672 14.8585 101.753 14.2398 101.753 13.5942ZM107.406 0.708618H110.621V3.74842H107.406V0.708618ZM107.406 6.27711H110.621V20.8843H107.406V6.27711ZM113.488 0.708618H116.703V20.8843H113.488V0.708618ZM126.51 21.2878C125.358 21.2878 124.313 21.0995 123.402 20.696C122.491 20.2925 121.74 19.7814 121.097 19.1089C120.481 18.4363 119.999 17.6024 119.677 16.6609C119.356 15.7193 119.168 14.6702 119.168 13.5673C119.168 12.4643 119.329 11.4421 119.677 10.5006C119.999 9.55902 120.481 8.75199 121.097 8.05257C121.714 7.38005 122.491 6.84203 123.402 6.46542C124.313 6.0888 125.358 5.87359 126.51 5.87359C127.662 5.87359 128.707 6.0619 129.618 6.46542C130.529 6.84203 131.279 7.38005 131.922 8.05257C132.538 8.72509 133.02 9.55902 133.342 10.5006C133.663 11.4421 133.851 12.4643 133.851 13.5673C133.851 14.6971 133.69 15.7193 133.342 16.6609C132.994 17.6024 132.538 18.4094 131.922 19.1089C131.306 19.7814 130.529 20.3194 129.618 20.696C128.707 21.0726 127.689 21.2878 126.51 21.2878ZM126.51 18.7322C127.206 18.7322 127.849 18.5708 128.358 18.2749C128.894 17.979 129.296 17.5755 129.644 17.0913C129.993 16.6071 130.234 16.0421 130.395 15.4503C130.555 14.8316 130.636 14.2129 130.636 13.5673C130.636 12.9485 130.555 12.3298 130.395 11.7111C130.234 11.0924 129.993 10.5544 129.644 10.0701C129.296 9.58592 128.867 9.20931 128.358 8.9134C127.823 8.61749 127.206 8.45608 126.51 8.45608C125.813 8.45608 125.17 8.61749 124.661 8.9134C124.125 9.20931 123.723 9.61282 123.375 10.0701C123.027 10.5544 122.785 11.0924 122.625 11.7111C122.464 12.3298 122.383 12.9485 122.383 13.5673C122.383 14.2129 122.464 14.8316 122.625 15.4503C122.785 16.069 123.027 16.6071 123.375 17.0913C123.723 17.5755 124.152 17.979 124.661 18.2749C125.197 18.5977 125.813 18.7322 126.51 18.7322ZM134.816 6.27711H137.254V1.86535H140.469V6.2502H143.363V8.64439H140.469V16.4457C140.469 16.7954 140.496 17.0644 140.523 17.3334C140.549 17.5755 140.63 17.7907 140.71 17.9521C140.817 18.1135 140.978 18.248 141.166 18.3287C141.38 18.4094 141.648 18.4632 142.023 18.4632C142.237 18.4632 142.478 18.4632 142.693 18.4363C142.907 18.4094 143.148 18.3825 143.363 18.3287V20.8305C143.014 20.8843 142.666 20.9112 142.318 20.9381C141.969 20.9919 141.648 20.9919 141.273 20.9919C140.415 20.9919 139.746 20.9112 139.236 20.7498C138.727 20.5884 138.325 20.3463 138.031 20.0504C137.736 19.7276 137.549 19.351 137.441 18.8936C137.334 18.4363 137.281 17.8714 137.254 17.2796V8.67129H134.816V6.22331V6.27711Z" fill="white" fill-opacity="0.6"/>
</svg>
