<svg width="28" height="27" viewBox="0 0 28 27" fill="none" xmlns="http://www.w3.org/2000/svg">
<path d="M17.0071 16.6894C16.4843 16.6894 16.0312 16.6811 15.5793 16.6929C15.338 16.6989 15.2079 16.6397 15.2162 16.3641C15.2304 15.8425 15.2197 15.3196 15.2197 14.7708H18.9518C18.9624 14.8323 18.9861 14.9103 18.9861 14.9872C18.9861 17.3376 18.9589 19.688 18.992 22.0384C19.005 22.9244 19.3764 24.047 20.5546 24.3557C21.45 24.5899 22.2603 24.3534 22.9641 23.7749C23.8383 23.0557 24.2073 22.0928 24.2144 20.9833C24.2227 19.5697 24.2168 18.155 24.2168 16.6882C23.6609 16.6882 23.1274 16.6717 22.5963 16.6941C22.2721 16.7083 22.1751 16.5889 22.1893 16.2778C22.2106 15.7845 22.1953 15.29 22.1953 14.7708H26.2277V24.1416H27.6992V25.9124H24.6947C24.6119 25.3825 24.5315 24.8691 24.4392 24.2765C24.3209 24.3877 24.2192 24.4586 24.1506 24.5533C23.5922 25.3281 22.8932 25.9124 21.9539 26.1525C20.7202 26.4684 19.5704 26.2448 18.5508 25.4901C17.5287 24.7354 17.0402 23.6696 17.0189 22.4217C16.987 20.5243 17.0106 18.627 17.0106 16.6882L17.0071 16.6894Z" fill="white" fill-opacity="0.6"/>
<path d="M24.7442 5.01068C24.7442 4.47838 24.7182 3.95554 24.7549 3.43625C24.7738 3.1701 24.639 3.04945 24.4592 2.95836C23.4963 2.47101 22.4412 2.44026 21.4393 2.63425C20.0411 2.90632 19.1622 3.8964 18.7494 5.22478C18.2313 6.89384 18.566 8.40794 19.8613 9.63224C20.8194 10.5371 21.9775 10.7583 23.2443 10.465C24.1575 10.2544 24.8744 9.72805 25.4812 9.00175C25.9674 9.35781 26.4393 9.69375 26.8936 10.0522C26.9361 10.0865 26.9078 10.2947 26.8462 10.3644C25.8148 11.5308 24.5775 12.2784 22.9806 12.4534C20.8726 12.6829 19.1918 11.9211 17.8291 10.3952C17.0862 9.56363 16.6616 8.55462 16.4936 7.43087C16.1908 5.40577 16.8331 3.7024 18.2656 2.31842C19.5703 1.05864 21.1483 0.510962 23.0019 0.772381C23.8157 0.887122 24.6082 1.01251 25.3369 1.39222C25.7592 1.61223 26.159 1.87957 26.5529 2.14927C26.6345 2.20486 26.6854 2.361 26.6866 2.4722C26.6972 3.30732 26.6925 4.14244 26.6925 5.01068H24.7419H24.7442Z" fill="white" fill-opacity="0.6"/>
<path d="M15.9748 0.961623V2.83532C15.4898 2.83532 15.0131 2.8507 14.5388 2.82941C14.275 2.81758 14.1212 2.90275 14.0313 3.14879C13.1276 5.61275 12.2238 8.07671 11.313 10.5395C11.0895 11.1439 10.8446 11.7413 10.6033 12.3552C10.0875 12.3552 9.57654 12.373 9.06908 12.3434C8.94251 12.3363 8.75561 12.2038 8.71303 12.0867C8.14761 10.5466 7.60466 8.99818 7.05343 7.45215C6.53769 6.00665 6.02195 4.56116 5.49083 3.12158C5.45771 3.0305 5.29802 2.93468 5.19274 2.92995C4.72669 2.90984 4.25826 2.90866 3.79102 2.9264C3.50239 2.93705 3.38055 2.85307 3.39238 2.54433C3.41368 2.03687 3.3983 1.52823 3.3983 0.962806C4.03114 0.962806 4.64743 0.962806 5.26372 0.962806C5.64579 0.962806 6.03378 1.00421 6.40994 0.95216C6.87008 0.889466 7.01913 1.10475 7.15043 1.49747C8.00921 4.05725 8.89164 6.60756 9.85688 9.17562C10.0852 8.53567 10.3194 7.8981 10.5394 7.25579C11.2255 5.25197 11.9033 3.2446 12.5988 1.24433C12.639 1.12723 12.8106 0.978183 12.9229 0.975817C13.926 0.954525 14.9303 0.963988 15.9748 0.963988V0.961623Z" fill="white" fill-opacity="0.6"/>
<path d="M6.06533 16.499H4.30046V14.7696H7.72729C7.77106 15.4568 7.81364 16.1465 7.86687 16.9899C9.09353 14.8098 11.0181 14.5519 13.1508 14.7755V18.1077H11.2346V16.5711C10.2729 16.3357 9.17752 17.0774 8.61328 18.0131C8.27024 18.582 8.09754 19.2007 8.10936 19.882C8.13184 21.2684 8.11646 22.6559 8.11646 24.1085C8.9161 24.1085 9.70272 24.1085 10.4893 24.1085C11.276 24.1085 12.0732 24.1085 12.8729 24.1085V25.9112H4.26733V24.0825C4.77834 24.0825 5.28344 24.0778 5.78853 24.0849C6.00618 24.0884 6.1363 24.0411 6.13512 23.7832C6.12684 21.376 6.12566 18.97 6.12092 16.5628C6.12092 16.5522 6.10318 16.5416 6.06533 16.4966V16.499Z" fill="white" fill-opacity="0.6"/>
<path d="M2.28262 24.1096V25.9289H0.362793V24.1096H2.28262Z" fill="white" fill-opacity="0.6"/>
</svg>
