<svg width="1228" height="822" viewBox="0 0 1228 822" fill="none" xmlns="http://www.w3.org/2000/svg">
<g opacity="0.6" filter="url(#filter0_f_109_2967)">
<path d="M937.745 575.513C1063.5 521.627 1094.26 392.89 1006.45 287.972V287.972C918.644 183.053 745.515 141.684 619.758 195.57L545.272 227.487C419.516 281.373 388.754 410.11 476.563 515.028V515.028C564.373 619.947 737.502 661.316 863.259 607.43L937.745 575.513Z" fill="url(#paint0_radial_109_2967)"/>
</g>
<g style="mix-blend-mode:color-dodge" opacity="0.6" filter="url(#filter1_f_109_2967)">
<path d="M645.934 642.605C764.967 674.493 907.778 611.831 964.91 502.644V502.644C1022.04 393.457 971.861 279.093 852.827 247.204L732.437 214.952C613.404 183.064 470.593 245.726 413.461 354.913V354.913C356.329 464.1 406.51 578.464 525.544 610.353L645.934 642.605Z" fill="url(#paint1_radial_109_2967)"/>
</g>
<g style="mix-blend-mode:color-dodge" opacity="0.6" filter="url(#filter2_f_109_2967)">
<path d="M515.922 634.379C611.613 660.014 726.418 609.64 772.347 521.864V521.864C818.275 434.089 777.935 342.152 682.244 316.516L585.462 290.589C489.771 264.954 374.966 315.328 329.038 403.103V403.103C283.109 490.879 323.45 582.816 419.141 608.451L515.922 634.379Z" fill="url(#paint2_radial_109_2967)"/>
</g>
<g style="mix-blend-mode:color-dodge" opacity="0.6" filter="url(#filter3_f_109_2967)">
<path d="M377.045 612.636C472.736 638.271 587.541 587.897 633.47 500.122V500.122C679.398 412.346 639.058 320.409 543.367 294.774L446.585 268.846C350.894 243.211 236.089 293.585 190.161 381.361V381.361C144.232 469.136 184.573 561.073 280.264 586.709L377.045 612.636Z" fill="url(#paint3_radial_109_2967)"/>
</g>
<defs>
<filter id="filter0_f_109_2967" x="255.523" y="0.933838" width="971.97" height="801.132" filterUnits="userSpaceOnUse" color-interpolation-filters="sRGB">
<feFlood flood-opacity="0" result="BackgroundImageFix"/>
<feBlend mode="normal" in="SourceGraphic" in2="BackgroundImageFix" result="shape"/>
<feGaussianBlur stdDeviation="85.5" result="effect1_foregroundBlur_109_2967"/>
</filter>
<filter id="filter1_f_109_2967" x="218.866" y="35.6396" width="940.639" height="786.278" filterUnits="userSpaceOnUse" color-interpolation-filters="sRGB">
<feFlood flood-opacity="0" result="BackgroundImageFix"/>
<feBlend mode="normal" in="SourceGraphic" in2="BackgroundImageFix" result="shape"/>
<feGaussianBlur stdDeviation="85.5" result="effect1_foregroundBlur_109_2967"/>
</filter>
<filter id="filter2_f_109_2967" x="139.069" y="112.906" width="823.246" height="699.155" filterUnits="userSpaceOnUse" color-interpolation-filters="sRGB">
<feFlood flood-opacity="0" result="BackgroundImageFix"/>
<feBlend mode="normal" in="SourceGraphic" in2="BackgroundImageFix" result="shape"/>
<feGaussianBlur stdDeviation="85.5" result="effect1_foregroundBlur_109_2967"/>
</filter>
<filter id="filter3_f_109_2967" x="0.192383" y="91.1638" width="823.246" height="699.155" filterUnits="userSpaceOnUse" color-interpolation-filters="sRGB">
<feFlood flood-opacity="0" result="BackgroundImageFix"/>
<feBlend mode="normal" in="SourceGraphic" in2="BackgroundImageFix" result="shape"/>
<feGaussianBlur stdDeviation="85.5" result="effect1_foregroundBlur_109_2967"/>
</filter>
<radialGradient id="paint0_radial_109_2967" cx="0" cy="0" r="1" gradientUnits="userSpaceOnUse" gradientTransform="translate(706.998 442.13) rotate(-154.057) scale(296.754 251.596)">
<stop stop-color="#A0F85A"/>
<stop offset="1" stop-color="#E888F8" stop-opacity="0"/>
<stop offset="1" stop-color="#88F8A7" stop-opacity="0"/>
</radialGradient>
<radialGradient id="paint1_radial_109_2967" cx="0" cy="0" r="1" gradientUnits="userSpaceOnUse" gradientTransform="translate(845.544 398.537) rotate(160.173) scale(259.862 206.758)">
<stop stop-color="#B7F257"/>
<stop offset="1" stop-color="#30D492" stop-opacity="0.04"/>
</radialGradient>
<radialGradient id="paint2_radial_109_2967" cx="0" cy="0" r="1" gradientUnits="userSpaceOnUse" gradientTransform="translate(486.655 517.148) rotate(-144.112) scale(194.549 185.187)">
<stop stop-color="#44E484"/>
<stop offset="1" stop-color="#037E82"/>
</radialGradient>
<radialGradient id="paint3_radial_109_2967" cx="0" cy="0" r="1" gradientUnits="userSpaceOnUse" gradientTransform="translate(347.778 495.405) rotate(-144.112) scale(194.549 185.187)">
<stop stop-color="#44E484"/>
<stop offset="1" stop-color="#037E82"/>
</radialGradient>
</defs>
</svg>
