<svg width="58" height="21" viewBox="0 0 58 21" fill="none" xmlns="http://www.w3.org/2000/svg">
<g clip-path="url(#clip0_70_1174)">
<path d="M41.3389 14.1556V-0.639648H44.3348V14.1556H41.3389Z" fill="white" fill-opacity="0.51"/>
<path d="M6.42271 18.5506H0V3.75537H6.16444C9.1604 3.75537 10.9061 5.37616 10.9061 7.91145C10.9061 9.55256 9.78493 10.6131 9.00893 10.9662C9.9352 11.3816 11.1209 12.3165 11.1209 14.2915C11.1209 17.0543 9.1604 18.5506 6.42271 18.5506ZM5.92731 6.33254H2.99593V9.74043H5.92731C7.19873 9.74043 7.91013 9.05458 7.91013 8.03592C7.91013 7.01839 7.19873 6.33254 5.92731 6.33254ZM6.12101 12.338H2.99593V15.9745H6.12101C7.47927 15.9745 8.12493 15.1438 8.12493 14.1455C8.12493 13.1484 7.47807 12.338 6.12101 12.338Z" fill="white"/>
<path d="M20.2589 12.4828V18.5506H17.2841V12.4828L12.6716 3.75537H15.9258L18.7926 9.71892L21.616 3.75537H24.8702L20.2589 12.4828Z" fill="white"/>
<path d="M33.3639 18.5506H26.9412V3.75537H33.1056C36.1016 3.75537 37.8472 5.37616 37.8472 7.91145C37.8472 9.55256 36.7261 10.6131 35.9501 10.9662C36.8764 11.3816 38.0621 12.3165 38.0621 14.2915C38.0621 17.0543 36.1016 18.5506 33.3639 18.5506ZM32.8685 6.33254H29.9371V9.74043H32.8685C34.1399 9.74043 34.8513 9.05458 34.8513 8.03592C34.8513 7.01839 34.1399 6.33254 32.8685 6.33254ZM33.0622 12.338H29.9371V15.9745H33.0622C34.4204 15.9745 35.0661 15.1438 35.0661 14.1455C35.0661 13.1484 34.4204 12.338 33.0622 12.338Z" fill="white"/>
<path d="M53.9908 6.33254V18.5517H50.9949V6.33254H46.9858V3.75537H57.9999V6.33254H53.9908Z" fill="white"/>
</g>
<defs>
<clipPath id="clip0_70_1174">
<rect width="58" height="20" fill="white" transform="translate(0 0.5)"/>
</clipPath>
</defs>
</svg>
