<svg width="22" height="23" viewBox="0 0 22 23" fill="none" xmlns="http://www.w3.org/2000/svg">
<path d="M10.175 6.93223C9.14551 7.21373 8.525 8.0037 8.525 8.75C8.525 9.4963 9.14551 10.2863 10.175 10.5678V6.93223Z" fill="white"/>
<path d="M11.825 12.4322V16.0678C12.8545 15.7863 13.475 14.9963 13.475 14.25C13.475 13.5037 12.8545 12.7137 11.825 12.4322Z" fill="white"/>
<path fill-rule="evenodd" clip-rule="evenodd" d="M22 11.5C22 17.5751 17.0751 22.5 11 22.5C4.92487 22.5 0 17.5751 0 11.5C0 5.42487 4.92487 0.5 11 0.5C17.0751 0.5 22 5.42487 22 11.5ZM11 4.075C11.4556 4.075 11.825 4.44437 11.825 4.9V5.24841C13.6185 5.56954 15.125 6.91697 15.125 8.75C15.125 9.20564 14.7556 9.575 14.3 9.575C13.8444 9.575 13.475 9.20564 13.475 8.75C13.475 8.0037 12.8545 7.21373 11.825 6.93223V10.7484C13.6185 11.0695 15.125 12.417 15.125 14.25C15.125 16.083 13.6185 17.4305 11.825 17.7516V18.1C11.825 18.5556 11.4556 18.925 11 18.925C10.5444 18.925 10.175 18.5556 10.175 18.1V17.7516C8.38153 17.4305 6.875 16.083 6.875 14.25C6.875 13.7944 7.24437 13.425 7.7 13.425C8.15563 13.425 8.525 13.7944 8.525 14.25C8.525 14.9963 9.14551 15.7863 10.175 16.0678V12.2516C8.38153 11.9305 6.875 10.583 6.875 8.75C6.875 6.91697 8.38153 5.56954 10.175 5.24841V4.9C10.175 4.44437 10.5444 4.075 11 4.075Z" fill="white"/>
</svg>
