<svg width="150" height="43" viewBox="0 0 150 43" fill="none" xmlns="http://www.w3.org/2000/svg">
<rect width="150" height="43" rx="7" fill="white" fill-opacity="0.15"/>
<path d="M54.4418 12.9462C54.4418 13.7682 54.2332 14.4874 53.7116 15.0012C53.0857 15.6177 52.3554 15.9259 51.4165 15.9259C50.4777 15.9259 49.7474 15.6177 49.1215 15.0012C48.4956 14.3847 48.1826 13.6655 48.1826 12.7407C48.1826 11.816 48.4956 11.0968 49.1215 10.4803C49.7474 9.86379 50.4777 9.55554 51.4165 9.55554C51.8338 9.55554 52.2511 9.65829 52.6684 9.86379C53.0857 10.0693 53.3986 10.2748 53.6073 10.583L53.0857 11.0968C52.6684 10.583 52.1468 10.3775 51.4165 10.3775C50.7906 10.3775 50.1647 10.583 49.7474 11.0968C49.2258 11.5078 49.0172 12.1242 49.0172 12.8435C49.0172 13.5627 49.2258 14.1792 49.7474 14.5902C50.269 15.0012 50.7906 15.3094 51.4165 15.3094C52.1468 15.3094 52.6684 15.1039 53.19 14.5902C53.5029 14.2819 53.7116 13.871 53.7116 13.3572H51.4165V12.5352H54.4418V12.9462ZM59.2405 10.3775H56.4239V12.3297H59.0319V13.049H56.4239V15.0012H59.2405V15.8232H55.5893V9.65829H59.2405V10.3775ZM62.6831 15.8232H61.8485V10.3775H60.0751V9.65829H64.4565V10.3775H62.6831V15.8232ZM67.4818 15.8232V9.65829H68.3164V15.8232H67.4818ZM71.8633 15.8232H71.0287V10.3775H69.2553V9.65829H73.5324V10.3775H71.759V15.8232H71.8633ZM81.7737 15.0012C81.1478 15.6177 80.4175 15.9259 79.4786 15.9259C78.5398 15.9259 77.8095 15.6177 77.1836 15.0012C76.5577 14.3847 76.2447 13.6655 76.2447 12.7407C76.2447 11.816 76.5577 11.0968 77.1836 10.4803C77.8095 9.86379 78.5398 9.55554 79.4786 9.55554C80.4175 9.55554 81.1478 9.86379 81.7737 10.4803C82.3996 11.0968 82.7126 11.816 82.7126 12.7407C82.7126 13.6655 82.3996 14.3847 81.7737 15.0012ZM77.8095 14.4874C78.2268 14.8984 78.8527 15.2067 79.4786 15.2067C80.1046 15.2067 80.7305 15.0012 81.1478 14.4874C81.565 14.0764 81.878 13.46 81.878 12.7407C81.878 12.0215 81.6694 11.405 81.1478 10.994C80.7305 10.583 80.1046 10.2748 79.4786 10.2748C78.8527 10.2748 78.2268 10.4803 77.8095 10.994C77.3922 11.405 77.0793 12.0215 77.0793 12.7407C77.0793 13.46 77.2879 14.0764 77.8095 14.4874ZM83.8601 15.8232V9.65829H84.799L87.8242 14.4874V9.65829H88.6588V15.8232H87.8242L84.5903 10.7885V15.8232H83.8601Z" fill="white" stroke="white" stroke-width="0.299895" stroke-miterlimit="10"/>
<path d="M75.7577 24.558C73.236 24.558 71.2397 26.339 71.2397 28.8127C71.2397 31.1875 73.236 33.0675 75.7577 33.0675C78.2794 33.0675 80.2757 31.2864 80.2757 28.8127C80.2757 26.2401 78.2794 24.558 75.7577 24.558ZM75.7577 31.2864C74.3918 31.2864 73.236 30.198 73.236 28.7138C73.236 27.2296 74.3918 26.1411 75.7577 26.1411C77.1236 26.1411 78.2794 27.1306 78.2794 28.7138C78.2794 30.198 77.1236 31.2864 75.7577 31.2864ZM65.9862 24.558C63.4646 24.558 61.4682 26.339 61.4682 28.8127C61.4682 31.1875 63.4646 33.0675 65.9862 33.0675C68.5079 33.0675 70.5042 31.2864 70.5042 28.8127C70.5042 26.2401 68.5079 24.558 65.9862 24.558ZM65.9862 31.2864C64.6203 31.2864 63.4646 30.198 63.4646 28.7138C63.4646 27.2296 64.6203 26.1411 65.9862 26.1411C67.3521 26.1411 68.5079 27.1306 68.5079 28.7138C68.5079 30.198 67.3521 31.2864 65.9862 31.2864ZM54.3235 25.8443V27.6254H58.8415C58.7364 28.6148 58.3162 29.4064 57.7908 29.9012C57.1604 30.4949 56.1097 31.1875 54.3235 31.1875C51.4866 31.1875 49.3852 29.1096 49.3852 26.438C49.3852 23.7664 51.5917 21.6885 54.3235 21.6885C55.7945 21.6885 56.9503 22.2822 57.7908 22.9748L59.1567 21.6885C58.0009 20.699 56.53 19.9074 54.4286 19.9074C50.6461 19.9074 47.3889 22.8759 47.3889 26.438C47.3889 30.0001 50.6461 32.9686 54.4286 32.9686C56.53 32.9686 58.0009 32.3749 59.2618 31.0885C60.5226 29.9012 60.9429 28.219 60.9429 26.9327C60.9429 26.5369 60.9429 26.1411 60.8378 25.8443H54.3235ZM102.025 27.2296C101.605 26.2401 100.554 24.558 98.2426 24.558C95.9311 24.558 94.0398 26.2401 94.0398 28.8127C94.0398 31.1875 95.9311 33.0675 98.4527 33.0675C100.449 33.0675 101.71 31.8801 102.13 31.1875L100.659 30.198C100.134 30.8906 99.5034 31.3854 98.4527 31.3854C97.402 31.3854 96.7716 30.9896 96.2463 30.0991L102.235 27.7243L102.025 27.2296ZM95.9311 28.6148C95.9311 27.0317 97.297 26.1411 98.2426 26.1411C98.9781 26.1411 99.7136 26.5369 99.9237 27.0317L95.9311 28.6148ZM90.9928 32.6717H92.9891V20.3032H90.9928V32.6717ZM87.8407 25.4485C87.3154 24.9538 86.4748 24.459 85.4241 24.459C83.2177 24.459 81.1163 26.339 81.1163 28.7138C81.1163 31.0885 83.1126 32.8696 85.4241 32.8696C86.4748 32.8696 87.3154 32.3749 87.7356 31.8801H87.8407V32.4738C87.8407 34.057 86.8951 34.9475 85.4241 34.9475C84.2684 34.9475 83.4278 34.1559 83.2176 33.4633L81.5365 34.1559C82.0619 35.2444 83.3227 36.6296 85.5292 36.6296C87.8407 36.6296 89.732 35.3433 89.732 32.2759V24.7559H87.8407V25.4485ZM85.5292 31.2864C84.1633 31.2864 83.0075 30.198 83.0075 28.7138C83.0075 27.2296 84.1633 26.1411 85.5292 26.1411C86.8951 26.1411 87.9458 27.2296 87.9458 28.7138C87.9458 30.198 86.8951 31.2864 85.5292 31.2864ZM111.166 20.3032H106.438V32.6717H108.434V28.0211H111.166C113.373 28.0211 115.474 26.5369 115.474 24.1622C115.474 21.7874 113.373 20.3032 111.166 20.3032ZM111.271 26.2401H108.434V21.9853H111.271C112.742 21.9853 113.583 23.1727 113.583 24.0632C113.478 25.1517 112.637 26.2401 111.271 26.2401ZM123.354 24.459C121.883 24.459 120.412 25.0527 119.887 26.339L121.673 27.0317C122.093 26.339 122.724 26.1411 123.459 26.1411C124.51 26.1411 125.456 26.7348 125.561 27.7243V27.8233C125.245 27.6254 124.405 27.3285 123.564 27.3285C121.673 27.3285 119.782 28.318 119.782 30.0991C119.782 31.7812 121.358 32.8696 123.039 32.8696C124.405 32.8696 125.035 32.2759 125.561 31.6822H125.666V32.6717H127.557V27.9222C127.347 25.7453 125.561 24.459 123.354 24.459ZM123.144 31.2864C122.514 31.2864 121.568 30.9896 121.568 30.198C121.568 29.2085 122.724 28.9117 123.669 28.9117C124.51 28.9117 124.93 29.1096 125.456 29.3075C125.245 30.4949 124.195 31.2864 123.144 31.2864ZM134.176 24.7559L131.97 30.0991H131.865L129.553 24.7559H127.452L130.919 32.2759L128.923 36.4317H130.919L136.278 24.7559H134.176ZM116.525 32.6717H118.521V20.3032H116.525V32.6717Z" fill="white"/>
<path d="M15.4979 10.155C15.184 10.4547 15.0793 10.9542 15.0793 11.5536V33.6323C15.0793 34.2317 15.2886 34.7313 15.6025 35.031L15.7072 35.1309L28.6822 22.7428V22.543L15.4979 10.155Z" fill="url(#paint0_linear_196_490)"/>
<path d="M32.8678 26.9387L28.5776 22.8427V22.543L32.8678 18.4469L32.9724 18.5468L38.0996 21.3441C39.5645 22.1434 39.5645 23.4421 38.0996 24.2413L32.8678 26.9387V26.9387Z" fill="url(#paint1_linear_196_490)"/>
<path d="M32.9722 26.8389L28.5775 22.6429L15.4978 35.1309C16.021 35.6304 16.7534 35.6304 17.6952 35.2308L32.9722 26.8389" fill="url(#paint2_linear_196_490)"/>
<path d="M32.9722 18.448L17.6952 10.156C16.7534 9.6565 16.021 9.7564 15.4978 10.2559L28.5775 22.644L32.9722 18.448V18.448Z" fill="url(#paint3_linear_196_490)"/>
<path opacity="0.2" d="M32.8676 26.739L17.6952 34.9311C16.8581 35.4306 16.1256 35.3307 15.6024 34.9311L15.4978 35.031L15.6024 35.1309C16.1256 35.5305 16.8581 35.6304 17.6952 35.1309L32.8676 26.739Z" fill="white" fill-opacity="0.26"/>
<path opacity="0.12" d="M15.4979 34.9311C15.184 34.6313 15.0793 34.1318 15.0793 33.5324V33.6323C15.0793 34.2317 15.2886 34.7313 15.6025 35.031V34.9311H15.4979ZM38.0995 23.9417L32.8677 26.739L32.9723 26.8389L38.0995 24.0416C38.832 23.6419 39.1459 23.1424 39.1459 22.6429C39.1459 23.1424 38.7274 23.542 38.0995 23.9417V23.9417Z" fill="white" fill-opacity="0.26"/>
<path opacity="0.25" d="M17.6953 10.2549L38.0995 21.3442C38.7274 21.7438 39.1459 22.1434 39.1459 22.6429C39.1459 22.1434 38.832 21.6439 38.0995 21.2443L17.6953 10.155C16.2304 9.35573 15.0793 9.95515 15.0793 11.5536V11.6535C15.0793 10.155 16.2304 9.45563 17.6953 10.2549Z" fill="white"/>
<defs>
<linearGradient id="paint0_linear_196_490" x1="27.4265" y1="11.3638" x2="10.6776" y2="28.9053" gradientUnits="userSpaceOnUse">
<stop stop-color="#00A0FF"/>
<stop offset="0.007" stop-color="#00A1FF"/>
<stop offset="0.26" stop-color="#00BEFF"/>
<stop offset="0.512" stop-color="#00D2FF"/>
<stop offset="0.76" stop-color="#00DFFF"/>
<stop offset="1" stop-color="#00E3FF"/>
</linearGradient>
<linearGradient id="paint1_linear_196_490" x1="40.0187" y1="22.6439" x2="14.6996" y2="22.6439" gradientUnits="userSpaceOnUse">
<stop stop-color="#FFE000"/>
<stop offset="0.409" stop-color="#FFBD00"/>
<stop offset="0.775" stop-color="#FFA500"/>
<stop offset="1" stop-color="#FF9C00"/>
</linearGradient>
<linearGradient id="paint2_linear_196_490" x1="30.5938" y1="24.9367" x2="7.88209" y2="48.7245" gradientUnits="userSpaceOnUse">
<stop stop-color="#FF3A44"/>
<stop offset="1" stop-color="#C31162"/>
</linearGradient>
<linearGradient id="paint3_linear_196_490" x1="12.2509" y1="2.83907" x2="22.3932" y2="13.462" gradientUnits="userSpaceOnUse">
<stop stop-color="#32A071"/>
<stop offset="0.069" stop-color="#2DA771"/>
<stop offset="0.476" stop-color="#15CF74"/>
<stop offset="0.801" stop-color="#06E775"/>
<stop offset="1" stop-color="#00F076"/>
</linearGradient>
</defs>
</svg>
