<svg width="150" height="43" viewBox="0 0 150 43" fill="none" xmlns="http://www.w3.org/2000/svg">
<rect width="150" height="43" rx="7" fill="white" fill-opacity="0.15"/>
<path d="M34.4337 21.9374C34.4026 18.6176 37.2591 17.0025 37.3897 16.9273C35.772 14.6582 33.2646 14.3481 32.3834 14.3234C30.2775 14.1102 28.2347 15.5358 27.1619 15.5358C26.0677 15.5358 24.4158 14.344 22.6353 14.379C20.3441 14.413 18.2007 15.6892 17.0252 17.671C14.5991 21.7118 16.4085 27.65 18.7328 30.9162C19.8955 32.5169 21.2542 34.3019 23.0325 34.2391C24.7723 34.1711 25.4222 33.173 27.5217 33.173C29.6019 33.173 30.2122 34.2391 32.0258 34.1989C33.893 34.1711 35.0686 32.5921 36.1906 30.978C37.5343 29.1456 38.0739 27.3389 38.0953 27.2462C38.0524 27.2318 34.4701 25.9154 34.4337 21.9374V21.9374ZM31.0077 12.1748C31.9434 11.0489 32.5836 9.51727 32.4059 7.96295C31.0516 8.02063 29.3578 8.86423 28.3825 9.96534C27.5195 10.9356 26.7487 12.526 26.9478 14.0216C28.4692 14.1308 30.0312 13.2831 31.0077 12.1748V12.1748Z" fill="white"/>
<path d="M59.9125 31.8427H57.4723L56.1357 27.8336H51.4896L50.2163 31.8427H47.8406L52.4448 18.1938H55.2879L59.9125 31.8427ZM55.7327 26.1516L54.5239 22.5875C54.3961 22.2234 54.1554 21.366 53.8029 20.0163H53.76C53.6181 20.5968 53.3914 21.4542 53.0809 22.5875L51.8925 26.1516H55.7327ZM71.7298 26.8008C71.7298 28.4746 71.2538 29.7976 70.3007 30.7689C69.4476 31.6335 68.3871 32.0652 67.1224 32.0652C65.7567 32.0652 64.7746 31.6006 64.1783 30.6694V35.8334H61.8874V25.2357C61.8874 24.1844 61.8584 23.1065 61.8026 22.0009H63.8172L63.9451 23.5608H63.9881C64.7521 22.3855 65.9114 21.7978 67.4673 21.7978C68.6836 21.7978 69.699 22.2563 70.5113 23.1742C71.3226 24.0942 71.7298 25.3023 71.7298 26.8008ZM69.396 26.8808C69.396 25.9228 69.1704 25.1331 68.7169 24.5106C68.2216 23.8634 67.5565 23.5393 66.7227 23.5393C66.1575 23.5393 65.6439 23.7198 65.1851 24.0757C64.7252 24.4347 64.4243 24.9034 64.2836 25.4839C64.2207 25.701 64.185 25.9244 64.1772 26.1495V27.7915C64.1772 28.5064 64.4071 29.1105 64.867 29.6048C65.3269 30.0971 65.9243 30.3443 66.6593 30.3443C67.5221 30.3443 68.1937 30.0253 68.674 29.3925C69.1553 28.7576 69.396 27.9207 69.396 26.8808ZM83.589 26.8008C83.589 28.4746 83.113 29.7976 82.1599 30.7689C81.3057 31.6335 80.2463 32.0652 78.9805 32.0652C77.6148 32.0652 76.6327 31.6006 76.0364 30.6694V35.8334H73.7456V25.2357C73.7456 24.1844 73.7166 23.1065 73.6607 22.0009H75.6754L75.8032 23.5608H75.8462C76.6091 22.3855 77.7685 21.7978 79.3254 21.7978C80.5407 21.7978 81.5561 22.2563 82.3705 23.1742C83.1807 24.0942 83.589 25.3023 83.589 26.8008ZM81.2541 26.8808C81.2541 25.9228 81.0274 25.1331 80.574 24.5106C80.0786 23.8634 79.4157 23.5393 78.5819 23.5393C78.0167 23.5393 77.5031 23.7198 77.0421 24.0757C76.5822 24.4347 76.2825 24.9034 76.1417 25.4839C76.0718 25.7546 76.0342 25.9751 76.0342 26.1495V27.7915C76.0342 28.5064 76.2653 29.1105 76.723 29.6048C77.1829 30.0961 77.7803 30.3443 78.5174 30.3443C79.3813 30.3443 80.0529 30.0253 80.5321 29.3925C81.0135 28.7576 81.2541 27.9207 81.2541 26.8808ZM96.8483 28.0141C96.8483 29.1761 96.4228 30.1207 95.5772 30.8499C94.6466 31.6458 93.3476 32.0447 91.6821 32.0447C90.1434 32.0447 88.9099 31.7617 87.9794 31.1945L88.5091 29.372C89.5138 29.9402 90.6173 30.2232 91.8186 30.2232C92.6825 30.2232 93.354 30.0366 93.8333 29.6663C94.3136 29.2951 94.5564 28.7987 94.5564 28.1792C94.5564 27.6243 94.3555 27.1597 93.9611 26.7813C93.5646 26.4039 92.9092 26.0521 91.9883 25.729C89.4848 24.8377 88.2319 23.5342 88.2319 21.8194C88.2319 20.6994 88.6746 19.7825 89.5578 19.0656C90.4411 18.3497 91.6123 17.9918 93.0693 17.9918C94.3705 17.9918 95.4547 18.2082 96.3153 18.6399L95.7405 20.4225C94.9303 20.004 94.0159 19.7948 92.993 19.7948C92.185 19.7948 91.551 19.9845 91.0976 20.362C90.7161 20.6994 90.5227 21.1107 90.5227 21.5988C90.5227 22.1373 90.743 22.5845 91.1814 22.9352C91.5618 23.2583 92.2559 23.6101 93.2595 23.9875C94.4908 24.4613 95.3956 25.0131 95.9747 25.6469C96.5582 26.2808 96.8483 27.0715 96.8483 28.0141ZM104.442 23.6419H101.917V28.4202C101.917 29.6356 102.362 30.2417 103.253 30.2417C103.663 30.2417 104.002 30.2089 104.271 30.1402L104.334 31.8006C103.883 31.9617 103.289 32.0427 102.553 32.0427C101.648 32.0427 100.941 31.7791 100.431 31.2519C99.9224 30.7248 99.6667 29.8417 99.6667 28.5987V23.6378H98.1624V21.9968H99.6667V20.1948L101.917 19.5466V21.9968H104.442V23.6419ZM115.812 26.8408C115.812 28.3535 115.359 29.5956 114.454 30.5668C113.507 31.5668 112.248 32.0652 110.678 32.0652C109.163 32.0652 107.959 31.5863 107.06 30.6294C106.162 29.6704 105.713 28.4623 105.713 27.0049C105.713 25.4798 106.177 24.2306 107.102 23.2593C108.029 22.287 109.278 21.8009 110.848 21.8009C112.361 21.8009 113.576 22.2809 114.496 23.2388C115.375 24.168 115.812 25.368 115.812 26.8408ZM113.437 26.891C113.437 25.9895 113.233 25.2162 112.824 24.569C112.344 23.7875 111.656 23.3967 110.765 23.3967C109.848 23.3967 109.144 23.7875 108.665 24.569C108.254 25.2162 108.05 26.0028 108.05 26.932C108.05 27.8346 108.254 28.61 108.665 29.2551C109.16 30.0366 109.851 30.4273 110.746 30.4273C111.622 30.4273 112.308 30.0284 112.805 29.2356C113.226 28.573 113.437 27.7946 113.437 26.891ZM123.262 23.9239C123.023 23.8829 122.782 23.8626 122.539 23.8634C121.734 23.8634 121.11 24.1526 120.672 24.7352C120.292 25.248 120.1 25.8962 120.1 26.6787V31.8427H117.81V25.1003C117.812 24.0672 117.789 23.0341 117.743 22.0019H119.738L119.822 23.8849H119.885C120.128 23.2378 120.509 22.7157 121.031 22.325C121.509 21.9835 122.09 21.7986 122.687 21.7978C122.898 21.7978 123.09 21.8122 123.259 21.8378L123.262 23.9239ZM133.507 26.4562C133.513 26.7886 133.485 27.1207 133.423 27.4479H126.551C126.576 28.4202 126.909 29.1648 127.548 29.6776C128.127 30.135 128.876 30.3648 129.796 30.3648C130.813 30.3648 131.741 30.2109 132.576 29.9002L132.935 31.4171C131.96 31.8232 130.808 32.0252 129.479 32.0252C127.88 32.0252 126.625 31.576 125.711 30.6796C124.8 29.7822 124.344 28.5761 124.344 27.0654C124.344 25.5823 124.768 24.3465 125.618 23.3609C126.508 22.3086 127.71 21.7824 129.223 21.7824C130.709 21.7824 131.834 22.3086 132.598 23.3609C133.203 24.1947 133.507 25.2285 133.507 26.4562ZM131.322 25.889C131.338 25.2398 131.188 24.6808 130.878 24.208C130.481 23.5988 129.871 23.2952 129.053 23.2952C128.304 23.2952 127.694 23.5916 127.23 24.1865C126.848 24.6593 126.621 25.2275 126.552 25.8869L131.322 25.889Z" fill="white"/>
<path d="M50.8288 15.5369C50.1917 15.5369 49.6404 15.5071 49.1816 15.4569V8.85809C49.8233 8.76347 50.4718 8.71683 51.1211 8.7186C53.7482 8.7186 54.9581 9.95242 54.9581 11.9636C54.9581 14.2836 53.529 15.5369 50.8288 15.5369ZM51.2135 9.56473C50.8589 9.56473 50.557 9.58525 50.3066 9.63448V14.6508C50.442 14.6713 50.702 14.6805 51.0674 14.6805C52.7887 14.6805 53.7687 13.7451 53.7687 11.9934C53.7687 10.4314 52.8822 9.56473 51.2135 9.56473ZM58.7285 15.5871C57.2479 15.5871 56.2883 14.5318 56.2883 13.099C56.2883 11.6057 57.2683 10.5411 58.8123 10.5411C60.2715 10.5411 61.2525 11.5462 61.2525 13.02C61.2525 14.5318 60.2414 15.5871 58.7285 15.5871ZM58.7715 11.3267C57.9581 11.3267 57.437 12.0529 57.437 13.0682C57.437 14.0641 57.9689 14.7902 58.7608 14.7902C59.5527 14.7902 60.0845 14.0139 60.0845 13.0477C60.0845 12.0631 59.5634 11.3267 58.7715 11.3267ZM69.6959 10.6406L68.111 15.4774H67.0784L66.4219 13.3769C66.2587 12.8632 66.1228 12.3418 66.0147 11.8149H65.9932C65.9104 12.3421 65.7536 12.8703 65.587 13.3769L64.8886 15.4774H63.8453L62.3539 10.6406H63.5111L64.0849 12.94C64.2203 13.4877 64.3342 14.0046 64.4287 14.4928H64.4502C64.5329 14.0856 64.6683 13.5769 64.8671 12.9503L65.587 10.6416H66.5046L67.1934 12.9011C67.3599 13.4487 67.4953 13.9862 67.6006 14.4938H67.6307C67.7038 13.9964 67.8187 13.4682 67.9745 12.9011L68.5902 10.6416L69.6959 10.6406ZM75.5304 15.4774H74.4043V12.7C74.4043 11.8447 74.0605 11.416 73.3825 11.416C72.7152 11.416 72.2564 11.9636 72.2564 12.6006V15.4774H71.1303V12.0231C71.1303 11.5955 71.1196 11.137 71.0884 10.6396H72.0791L72.1318 11.3862H72.1629C72.4659 10.8693 73.0805 10.5411 73.7693 10.5411C74.833 10.5411 75.5315 11.3175 75.5315 12.5811L75.5304 15.4774ZM78.6357 15.4774H77.5085V8.42117H78.6357V15.4774ZM82.7413 15.5871C81.2618 15.5871 80.3012 14.5318 80.3012 13.099C80.3012 11.6057 81.2811 10.5411 82.8241 10.5411C84.2843 10.5411 85.2642 11.5462 85.2642 13.02C85.2653 14.5318 84.2531 15.5871 82.7413 15.5871ZM82.7832 11.3267C81.9698 11.3267 81.4487 12.0529 81.4487 13.0682C81.4487 14.0641 81.9817 14.7902 82.7714 14.7902C83.5644 14.7902 84.0952 14.0139 84.0952 13.0477C84.0963 12.0631 83.5762 11.3267 82.7832 11.3267ZM89.7041 15.4774L89.6224 14.9205H89.5923C89.2485 15.3687 88.7467 15.5871 88.1106 15.5871C87.2026 15.5871 86.5579 14.98 86.5579 14.1636C86.5579 12.9698 87.6421 12.3524 89.5192 12.3524V12.2631C89.5192 11.6262 89.1657 11.3073 88.4673 11.3073C87.9677 11.3073 87.5293 11.4273 87.1435 11.6662L86.9147 10.9596C87.3831 10.6806 87.9677 10.5411 88.6543 10.5411C89.9781 10.5411 90.6464 11.2078 90.6464 12.5421V14.3236C90.6464 14.8118 90.6689 15.1902 90.7194 15.4784L89.7041 15.4774ZM89.5493 13.0682C88.2986 13.0682 87.6711 13.3575 87.6711 14.0436C87.6711 14.5513 87.9945 14.7995 88.4437 14.7995C89.0164 14.7995 89.5493 14.382 89.5493 13.8149V13.0682ZM96.1145 15.4774L96.0618 14.701H96.0307C95.7073 15.2877 95.1636 15.5871 94.4039 15.5871C93.1822 15.5871 92.2775 14.5615 92.2775 13.1185C92.2775 11.6057 93.2155 10.5401 94.4963 10.5401C95.1743 10.5401 95.6546 10.7585 95.9254 11.1975H95.9479V8.42117H97.0751V14.1738C97.0751 14.6415 97.0869 15.0795 97.117 15.4774H96.1145ZM95.9479 12.6313C95.9479 11.9544 95.4784 11.377 94.7617 11.377C93.9268 11.377 93.4164 12.0836 93.4164 13.0785C93.4164 14.0538 93.9462 14.7215 94.7391 14.7215C95.4472 14.7215 95.9479 14.1338 95.9479 13.4375V12.6313ZM104.222 15.5871C102.742 15.5871 101.782 14.5318 101.782 13.099C101.782 11.6057 102.762 10.5411 104.305 10.5411C105.766 10.5411 106.746 11.5462 106.746 13.02C106.747 14.5318 105.736 15.5871 104.222 15.5871ZM104.263 11.3267C103.451 11.3267 102.93 12.0529 102.93 13.0682C102.93 14.0641 103.462 14.7902 104.253 14.7902C105.046 14.7902 105.576 14.0139 105.576 13.0477C105.579 12.0631 105.058 11.3267 104.263 11.3267ZM112.801 15.4774H111.674V12.7C111.674 11.8447 111.33 11.416 110.652 11.416C109.985 11.416 109.527 11.9636 109.527 12.6006V15.4774H108.4V12.0231C108.4 11.5955 108.39 11.137 108.358 10.6396H109.349L109.402 11.3862H109.433C109.735 10.8693 110.35 10.5401 111.038 10.5401C112.102 10.5401 112.801 11.3165 112.801 12.58V15.4774ZM120.378 11.4467H119.139V13.7954C119.139 14.3933 119.356 14.6918 119.794 14.6918C119.993 14.6918 120.16 14.6713 120.294 14.6415L120.325 15.4579C120.107 15.5379 119.815 15.5779 119.451 15.5779C118.564 15.5779 118.033 15.1102 118.033 13.8856V11.4467H117.294V10.6406H118.033V9.75447L119.139 9.43551V10.6396H120.378V11.4467ZM126.339 15.4774H125.214V12.7206C125.214 11.8549 124.871 11.417 124.192 11.417C123.609 11.417 123.065 11.7954 123.065 12.5616V15.4774H121.94V8.42117H123.065V11.3267H123.088C123.442 10.7996 123.956 10.5401 124.611 10.5401C125.684 10.5401 126.339 11.336 126.339 12.6006V15.4774ZM132.446 13.3175H129.067C129.089 14.2333 129.724 14.7502 130.664 14.7502C131.163 14.7502 131.623 14.6702 132.029 14.5215L132.205 15.2682C131.725 15.4671 131.161 15.5666 130.505 15.5666C128.92 15.5666 127.982 14.6108 127.982 13.1287C127.982 11.6457 128.942 10.5309 130.378 10.5309C131.673 10.5309 132.485 11.4467 132.485 12.8303C132.492 12.9936 132.479 13.1571 132.446 13.3175ZM131.414 12.5513C131.414 11.8047 131.019 11.2775 130.3 11.2775C129.653 11.2775 129.141 11.8149 129.068 12.5513H131.414Z" fill="white"/>
</svg>
