<svg width="1920" height="1299" viewBox="0 0 1920 1299" fill="none" xmlns="http://www.w3.org/2000/svg">
<g opacity="0.6">
<g filter="url(#filter0_f_649_4974)">
<path d="M2189.79 1051.89C2360.18 978.884 2401.85 804.465 2282.89 662.316L2028.51 358.383C1909.54 216.234 1674.98 160.184 1504.6 233.192L979.798 458.068C809.417 531.076 767.739 705.495 886.708 847.644L1141.08 1151.58C1260.05 1293.73 1494.61 1349.78 1664.99 1276.77L2189.79 1051.89Z" fill="url(#paint0_radial_649_4974)"/>
</g>
<g style="mix-blend-mode:color-dodge" filter="url(#filter1_f_649_4974)">
<path d="M1600.65 1333.93C1734.65 1369.83 1895.41 1299.29 1959.72 1176.38L2172.64 769.472C2236.95 646.561 2180.46 517.822 2046.47 481.925L1343.45 293.589C1209.45 257.692 1048.69 328.231 984.379 451.142L771.465 858.049C707.151 980.96 763.64 1109.7 897.635 1145.6L1600.65 1333.93Z" fill="url(#paint1_radial_649_4974)"/>
</g>
<g style="mix-blend-mode:color-dodge" filter="url(#filter2_f_649_4974)">
<path d="M1098.7 1256.79C1304.9 1312.03 1552.28 1203.48 1651.25 1014.34V1014.34C1750.21 825.204 1663.29 627.097 1457.09 571.858L1248.55 515.99C1042.35 460.751 794.971 569.298 696.005 758.436V758.436C597.038 947.573 683.964 1145.68 890.158 1200.92L1098.7 1256.79Z" fill="url(#paint2_radial_649_4974)"/>
</g>
<g style="mix-blend-mode:color-dodge" filter="url(#filter3_f_649_4974)">
<path d="M799.452 1209.94C1005.65 1265.17 1253.03 1156.63 1351.99 967.49V967.49C1450.96 778.353 1364.04 580.246 1157.84 525.008L949.297 469.139C743.102 413.901 495.72 522.447 396.754 711.585V711.585C297.787 900.723 384.713 1098.83 590.907 1154.07L799.452 1209.94Z" fill="url(#paint3_radial_649_4974)"/>
</g>
<g clip-path="url(#clip0_649_4974)">
<path opacity="0.75" d="M1980.36 364.458C1875.13 384.713 1776.35 480.782 1631.97 467.712C1436.73 450.004 1356.33 317.329 1189.26 330.059C1009.18 343.751 855.016 568.364 698.471 538.717C605.348 521.065 575.476 453.625 474.998 450.796C359.866 447.514 306.289 539 163.832 544.149C89.7744 546.808 24.5993 519.028 -26.6016 486.326V939.683H1980.36V364.458Z" fill="url(#paint4_linear_649_4974)" fill-opacity="0.15"/>
<g opacity="0.5" filter="url(#filter4_b_649_4974)">
<path d="M1980.36 832.412C1696.97 671.957 1538.9 692.439 1416.53 731.986C1292.97 771.93 1226.83 825.057 1103.38 832.412C917.702 843.501 699.887 649.949 529.764 618.605C314.777 579 98.3749 749.695 -26.5439 843.444V939.626H1980.36V832.412Z" fill="url(#paint5_linear_649_4974)" fill-opacity="0.15"/>
</g>
<path opacity="0.5" d="M1980.36 549.807C1796.04 576.851 1628.63 905.058 1366.8 870.432C1205.11 849.046 1132.86 690.515 961.549 674.164C774.849 656.342 673.466 803.161 516.468 794.222C282.755 780.813 207.396 347.541 -26.5439 329.154V939.57H1980.36V549.807Z" fill="url(#paint6_linear_649_4974)" fill-opacity="0.15"/>
<g opacity="0.25">
</g>
<g opacity="0.25">
</g>
<path d="M1980.36 364.458C1875.13 384.713 1776.35 480.782 1631.97 467.712C1436.73 450.003 1356.33 317.329 1189.27 330.059C1009.19 343.751 855.017 568.364 698.472 538.717C605.349 521.065 575.477 453.624 474.999 450.796C359.867 447.514 306.29 539 163.833 544.149C89.7754 546.808 24.6003 519.028 -26.6006 486.326" stroke="url(#paint7_linear_649_4974)" stroke-opacity="0.15" stroke-width="1.56144" stroke-miterlimit="10" stroke-linecap="round"/>
<g opacity="0.25">
</g>
<path d="M1980.36 832.412C1696.97 671.958 1538.9 692.439 1416.53 731.986C1292.97 771.93 1226.83 825.057 1103.38 832.412C917.702 843.501 699.887 649.949 529.764 618.605C314.777 579 98.3749 749.695 -26.5439 843.444" stroke="url(#paint8_linear_649_4974)" stroke-opacity="0.15" stroke-width="1.56144" stroke-miterlimit="10" stroke-linecap="round"/>
</g>
</g>
<defs>
<filter id="filter0_f_649_4974" x="610.72" y="-7.02255" width="1948.15" height="1524.01" filterUnits="userSpaceOnUse" color-interpolation-filters="sRGB">
<feFlood flood-opacity="0" result="BackgroundImageFix"/>
<feBlend mode="normal" in="SourceGraphic" in2="BackgroundImageFix" result="shape"/>
<feGaussianBlur stdDeviation="104.096" result="effect1_foregroundBlur_649_4974"/>
</filter>
<filter id="filter1_f_649_4974" x="619.316" y="158.644" width="1705.47" height="1310.23" filterUnits="userSpaceOnUse" color-interpolation-filters="sRGB">
<feFlood flood-opacity="0" result="BackgroundImageFix"/>
<feBlend mode="normal" in="SourceGraphic" in2="BackgroundImageFix" result="shape"/>
<feGaussianBlur stdDeviation="62.7937" result="effect1_foregroundBlur_649_4974"/>
</filter>
<filter id="filter2_f_649_4974" x="529.544" y="376.003" width="1288.16" height="1020.77" filterUnits="userSpaceOnUse" color-interpolation-filters="sRGB">
<feFlood flood-opacity="0" result="BackgroundImageFix"/>
<feBlend mode="normal" in="SourceGraphic" in2="BackgroundImageFix" result="shape"/>
<feGaussianBlur stdDeviation="62.7937" result="effect1_foregroundBlur_649_4974"/>
</filter>
<filter id="filter3_f_649_4974" x="147.689" y="246.548" width="1453.37" height="1185.98" filterUnits="userSpaceOnUse" color-interpolation-filters="sRGB">
<feFlood flood-opacity="0" result="BackgroundImageFix"/>
<feBlend mode="normal" in="SourceGraphic" in2="BackgroundImageFix" result="shape"/>
<feGaussianBlur stdDeviation="104.096" result="effect1_foregroundBlur_649_4974"/>
</filter>
<filter id="filter4_b_649_4974" x="-30.7078" y="608.581" width="2015.23" height="335.21" filterUnits="userSpaceOnUse" color-interpolation-filters="sRGB">
<feFlood flood-opacity="0" result="BackgroundImageFix"/>
<feGaussianBlur in="BackgroundImageFix" stdDeviation="2.08191"/>
<feComposite in2="SourceAlpha" operator="in" result="effect1_backgroundBlur_649_4974"/>
<feBlend mode="normal" in="SourceGraphic" in2="effect1_backgroundBlur_649_4974" result="shape"/>
</filter>
<radialGradient id="paint0_radial_649_4974" cx="0" cy="0" r="1" gradientUnits="userSpaceOnUse" gradientTransform="translate(1510.43 842.529) rotate(-154.057) scale(639.445 542.137)">
<stop stop-color="#7A5AF8"/>
<stop offset="1" stop-color="#E888F8" stop-opacity="0"/>
</radialGradient>
<radialGradient id="paint1_radial_649_4974" cx="0" cy="0" r="1" gradientUnits="userSpaceOnUse" gradientTransform="translate(1808.97 748.596) rotate(160.173) scale(559.949 445.521)">
<stop stop-color="#F257A0"/>
<stop offset="1" stop-color="#484EB7" stop-opacity="0"/>
<stop offset="1" stop-color="#D03F92" stop-opacity="0"/>
</radialGradient>
<radialGradient id="paint2_radial_649_4974" cx="0" cy="0" r="1" gradientUnits="userSpaceOnUse" gradientTransform="translate(1035.64 1004.18) rotate(-144.112) scale(419.214 399.04)">
<stop stop-color="#444CE4"/>
<stop offset="1" stop-color="#037E82"/>
</radialGradient>
<radialGradient id="paint3_radial_649_4974" cx="0" cy="0" r="1" gradientUnits="userSpaceOnUse" gradientTransform="translate(736.388 957.328) rotate(-144.112) scale(419.214 399.04)">
<stop stop-color="#444CE4"/>
<stop offset="1" stop-color="#037E82"/>
</radialGradient>
<linearGradient id="paint4_linear_649_4974" x1="1650.18" y1="406.746" x2="347.905" y2="835.788" gradientUnits="userSpaceOnUse">
<stop stop-color="#1246FF"/>
<stop offset="1" stop-color="#12FFC6" stop-opacity="0"/>
</linearGradient>
<linearGradient id="paint5_linear_649_4974" x1="1650.19" y1="654.266" x2="603.023" y2="1298.56" gradientUnits="userSpaceOnUse">
<stop stop-color="#1246FF"/>
<stop offset="1" stop-color="#12FFC6" stop-opacity="0"/>
</linearGradient>
<linearGradient id="paint6_linear_649_4974" x1="1650.19" y1="406.691" x2="347.973" y2="835.749" gradientUnits="userSpaceOnUse">
<stop stop-color="#1246FF"/>
<stop offset="1" stop-color="#12FFC6" stop-opacity="0"/>
</linearGradient>
<linearGradient id="paint7_linear_649_4974" x1="1650.18" y1="356.526" x2="879.876" y2="1076.71" gradientUnits="userSpaceOnUse">
<stop stop-color="#1246FF"/>
<stop offset="1" stop-color="#12FFC6" stop-opacity="0"/>
</linearGradient>
<linearGradient id="paint8_linear_649_4974" x1="1650.19" y1="642.049" x2="829.98" y2="1357.1" gradientUnits="userSpaceOnUse">
<stop stop-color="#1246FF"/>
<stop offset="1" stop-color="#12FFC6" stop-opacity="0"/>
</linearGradient>
<clipPath id="clip0_649_4974">
<rect width="2107.94" height="657.885" fill="white" transform="translate(0 285.25)"/>
</clipPath>
</defs>
</svg>
