<svg width="47" height="17" viewBox="0 0 47 17" fill="none" xmlns="http://www.w3.org/2000/svg">
<g clip-path="url(#clip0_19_378)">
<path d="M33.4988 11.4245V-0.411621H35.9265V11.4245H33.4988Z" fill="white" fill-opacity="0.51"/>
<path d="M5.20461 14.9402H0V3.104H4.99532C7.42308 3.104 8.83767 4.40063 8.83767 6.42886C8.83767 7.74175 7.92917 8.59019 7.30034 8.87268C8.05094 9.20499 9.01174 9.95289 9.01174 11.5329C9.01174 13.7432 7.42308 14.9402 5.20461 14.9402ZM4.80316 5.16574H2.42774V7.89205H4.80316C5.83346 7.89205 6.40994 7.34337 6.40994 6.52845C6.40994 5.71442 5.83346 5.16574 4.80316 5.16574ZM4.96013 9.9701H2.42774V12.8793H4.96013C6.06078 12.8793 6.584 12.2148 6.584 11.4161C6.584 10.6184 6.05981 9.9701 4.96013 9.9701Z" fill="white"/>
<path d="M16.4166 10.086V14.9402H14.006V10.086L10.2683 3.104H12.9053L15.2284 7.87485L17.5164 3.104H20.1534L16.4166 10.086Z" fill="white"/>
<path d="M27.0362 14.9402H21.8315V3.104H26.8269C29.2546 3.104 30.6692 4.40063 30.6692 6.42886C30.6692 7.74175 29.7607 8.59019 29.1319 8.87268C29.8825 9.20499 30.8433 9.95289 30.8433 11.5329C30.8433 13.7432 29.2546 14.9402 27.0362 14.9402ZM26.6347 5.16574H24.2593V7.89205H26.6347C27.665 7.89205 28.2415 7.34337 28.2415 6.52845C28.2415 5.71442 27.665 5.16574 26.6347 5.16574ZM26.7917 9.9701H24.2593V12.8793H26.7917C27.8923 12.8793 28.4155 12.2148 28.4155 11.4161C28.4155 10.6184 27.8923 9.9701 26.7917 9.9701Z" fill="white"/>
<path d="M43.7512 5.16574V14.9411H41.3234V5.16574H38.0747V3.104H46.9999V5.16574H43.7512Z" fill="white"/>
</g>
<defs>
<clipPath id="clip0_19_378">
<rect width="47" height="16" fill="white" transform="translate(0 0.5)"/>
</clipPath>
</defs>
</svg>
