<svg width="348" height="120" viewBox="0 0 348 120" fill="none" xmlns="http://www.w3.org/2000/svg">
    <style>
        .blink {
            animation: blink_anim 0.8s infinite alternate
        }

        @keyframes blink_anim {
            0% {
                r: 5                
            }
            80% {
                r: 12                
            }
            100% {
                r: 12                
            }
        }
    </style>
<path d="M3.86667 111.266L0 120H348V1.01673L344.133 7.53845C340.267 14.0602 332.533 27.1036 324.8 25.5465C317.067 23.9894 309.333 7.83172 301.6 2.79664C293.867 -2.23843 286.133 3.84907 278.4 14.3443C270.667 24.8395 262.933 39.7424 255.2 38.0655C247.467 36.3887 239.733 18.1321 232 15.4497C224.267 12.7673 216.533 25.6592 208.8 29.6179C201.067 33.5766 193.333 28.6022 185.6 33.3649C177.867 38.1276 170.133 52.6274 162.4 56.4916C154.667 60.3557 146.933 53.5841 139.2 50.7545C131.467 47.9249 123.733 49.0374 116 47.4576C108.267 45.8777 100.533 41.6055 92.8 46.7655C85.0667 51.9255 77.3333 66.5177 69.6 72.0731C61.8667 77.6285 54.1333 74.1471 46.4 71.8949C38.6667 69.6426 30.9333 68.6195 23.2 76.8419C15.4667 85.0643 7.73333 102.532 3.86667 111.266Z" fill="url(#paint0_linear_601_3129)"/>
<path d="M3.8667 111.266C7.73337 102.532 15.4667 85.0643 23.2 76.8419C30.9334 68.6195 38.6667 69.6426 46.4 71.8949C54.1334 74.1471 61.8667 77.6285 69.6 72.0731C77.3334 66.5177 85.0667 51.9255 92.8 46.7655C100.533 41.6055 108.267 45.8777 116 47.4576C123.733 49.0374 131.467 47.9249 139.2 50.7545C146.933 53.5841 154.667 60.3557 162.4 56.4916C170.133 52.6274 177.867 38.1276 185.6 33.3649C193.333 28.6022 201.067 33.5766 208.8 29.6179C216.533 25.6592 224.267 12.7673 232 15.4497C239.733 18.1321 247.467 36.3887 255.2 38.0655C262.933 39.7424 270.667 24.8395 278.4 14.3443C286.133 3.84907 293.867 -2.23843 301.6 2.79664C309.333 7.83172 317.067 23.9894 324.8 25.5465C332.533 27.1036 340.267 14.0602 344.133 7.53845L348 1.01673" stroke="#2CBA65" stroke-width="2"/>
<g filter="url(#filter0_d_601_3129)">
<circle class="blink" cx="181" cy="35" r="9" fill="white"/>
<circle cx="181" cy="35" r="6" stroke="#2CBA65" stroke-width="6"/>
</g>
<defs>
<filter id="filter0_d_601_3129" x="141" y="2" width="80" height="80" filterUnits="userSpaceOnUse" color-interpolation-filters="sRGB">
<feFlood flood-opacity="0" result="BackgroundImageFix"/>
<feColorMatrix in="SourceAlpha" type="matrix" values="0 0 0 0 0 0 0 0 0 0 0 0 0 0 0 0 0 0 127 0" result="hardAlpha"/>
<feOffset dy="7"/>
<feGaussianBlur stdDeviation="15.5"/>
<feComposite in2="hardAlpha" operator="out"/>
<feColorMatrix type="matrix" values="0 0 0 0 0 0 0 0 0 0 0 0 0 0 0 0 0 0 1 0"/>
<feBlend mode="normal" in2="BackgroundImageFix" result="effect1_dropShadow_601_3129"/>
<feBlend mode="normal" in="SourceGraphic" in2="effect1_dropShadow_601_3129" result="shape"/>
</filter>
<linearGradient id="paint0_linear_601_3129" x1="3.503" y1="1" x2="3.503" y2="120" gradientUnits="userSpaceOnUse">
<stop stop-color="#51DD67"/>
<stop offset="1" stop-color="#51DD67" stop-opacity="0.01"/>
</linearGradient>
</defs>
</svg>
