<svg width="348" height="121" viewBox="0 0 348 121" fill="none" xmlns="http://www.w3.org/2000/svg">
    <style>
        .blink {
            animation: blink_anim 0.8s infinite alternate
        }

        @keyframes blink_anim {
            0% {
                r: 5                
            }
            80% {
                r: 12                
            }
            100% {
                r: 12                
            }
        }
    </style>
<path d="M3.625 73.8523L0 79.3471V121H348V1L344.375 1.64773C340.75 2.29547 333.5 3.59093 326.25 7.27529C319 10.9597 311.75 17.0329 304.5 20.4893C297.25 23.9457 290 24.7852 282.75 25.5773C275.5 26.3693 268.25 27.1138 261 23.6814C253.75 20.2491 246.5 12.6399 239.25 15.5699C232 18.5 224.75 31.9694 217.5 36.4278C210.25 40.8863 203 36.3339 195.75 37.7221C188.5 39.1103 181.25 46.439 174 48.2457C166.75 50.0524 159.5 46.3371 152.25 46.4383C145 46.5396 137.75 50.4575 130.5 48.2848C123.25 46.1121 116 37.8487 108.75 39.7058C101.5 41.5628 94.25 53.5403 87 55.6746C79.75 57.8088 72.5 50.0999 65.25 46.2277C58 42.3556 50.75 42.3203 43.5 42.9848C36.25 43.6494 29 45.0138 21.75 51.1908C14.5 57.3678 7.25 68.3575 3.625 73.8523Z" fill="url(#paint0_linear_601_3131)"/>
<path d="M0 79.3471L3.625 73.8523C7.25 68.3575 14.5 57.3678 21.75 51.1908C29 45.0138 36.25 43.6494 43.5 42.9848C50.75 42.3203 58 42.3556 65.25 46.2277C72.5 50.0999 79.75 57.8088 87 55.6746C94.25 53.5403 101.5 41.5628 108.75 39.7058C116 37.8487 123.25 46.1121 130.5 48.2848C137.75 50.4575 145 46.5396 152.25 46.4383C159.5 46.3371 166.75 50.0524 174 48.2457C181.25 46.439 188.5 39.1103 195.75 37.7221C203 36.3339 210.25 40.8863 217.5 36.4278C224.75 31.9694 232 18.5 239.25 15.5699C246.5 12.6399 253.75 20.2491 261 23.6814C268.25 27.1138 275.5 26.3693 282.75 25.5773C290 24.7852 297.25 23.9457 304.5 20.4893C311.75 17.0329 319 10.9597 326.25 7.27529C333.5 3.59093 340.75 2.29547 344.375 1.64773L348 1" stroke="#2CBA65" stroke-width="2"/>
<g filter="url(#filter0_d_601_3131)">
<circle class="blink" cx="187" cy="41" r="9" fill="white"/>
<circle cx="187" cy="41" r="6" stroke="#2CC96A" stroke-width="6"/>
</g>
<defs>
<filter id="filter0_d_601_3131" x="147" y="8" width="80" height="80" filterUnits="userSpaceOnUse" color-interpolation-filters="sRGB">
<feFlood flood-opacity="0" result="BackgroundImageFix"/>
<feColorMatrix in="SourceAlpha" type="matrix" values="0 0 0 0 0 0 0 0 0 0 0 0 0 0 0 0 0 0 127 0" result="hardAlpha"/>
<feOffset dy="7"/>
<feGaussianBlur stdDeviation="15.5"/>
<feComposite in2="hardAlpha" operator="out"/>
<feColorMatrix type="matrix" values="0 0 0 0 0 0 0 0 0 0 0 0 0 0 0 0 0 0 1 0"/>
<feBlend mode="normal" in2="BackgroundImageFix" result="effect1_dropShadow_601_3131"/>
<feBlend mode="normal" in="SourceGraphic" in2="effect1_dropShadow_601_3131" result="shape"/>
</filter>
<linearGradient id="paint0_linear_601_3131" x1="3.503" y1="1" x2="3.503" y2="121" gradientUnits="userSpaceOnUse">
<stop stop-color="#51DD67"/>
<stop offset="1" stop-color="#51DD67" stop-opacity="0.01"/>
</linearGradient>
</defs>
</svg>
