<svg width="348" height="131" viewBox="0 0 348 131" fill="none" xmlns="http://www.w3.org/2000/svg">
    <style>
        .blink {
            animation: blink_anim 0.8s infinite alternate
        }

        @keyframes blink_anim {
            0% {
                r: 5                
            }
            80% {
                r: 12                
            }
            100% {
                r: 12                
            }
        }
    </style>
<path d="M3.625 83.0409L0 84.6842V131H348V16.0648L344.375 14.1581C340.75 12.2515 333.5 8.43824 326.25 13.5788C319 18.7194 311.75 32.8137 304.5 40.2558C297.25 47.6979 290 48.4877 282.75 45.4117C275.5 42.3358 268.25 35.3941 261 36.5587C253.75 37.7233 246.5 46.9943 239.25 47.2142C232 47.4341 224.75 38.603 217.5 33.3748C210.25 28.1466 203 26.5214 195.75 29.2045C188.5 31.8877 181.25 38.8793 174 45.705C166.75 52.5306 159.5 59.1904 152.25 60.0184C145 60.8464 137.75 55.8427 130.5 49.8895C123.25 43.9364 116 37.0338 108.75 37.8371C101.5 38.6403 94.25 47.1494 87 50.5544C79.75 53.9594 72.5 52.2604 65.25 56.0389C58 59.8173 50.75 69.0732 43.5 73.1171C36.25 77.1609 29 75.9926 21.75 77.0518C14.5 78.111 7.25 81.3976 3.625 83.0409Z" fill="url(#paint0_linear_601_3153)"/>
<path d="M0 85L3.625 83.3496C7.25 81.6993 14.5 78.3986 21.75 77.3349C29 76.2712 36.25 77.4444 43.5 73.3833C50.75 69.3221 58 60.0265 65.25 56.2319C72.5 52.4373 79.75 54.1435 87 50.7239C94.25 47.3043 101.5 38.7588 108.75 37.9521C116 37.1454 123.25 44.0775 130.5 50.0562C137.75 56.0349 145 61.0601 152.25 60.2285C159.5 59.3969 166.75 52.7086 174 45.8537C181.25 38.9988 188.5 31.9772 195.75 29.2826C203 26.5879 210.25 28.2201 217.5 33.4707C224.75 38.7213 232 47.5902 239.25 47.3694C246.5 47.1485 253.75 37.8378 261 36.6682C268.25 35.4986 275.5 42.4701 282.75 45.5592C290 48.6483 297.25 47.8552 304.5 40.3812C311.75 32.9072 319 18.7524 326.25 13.5899C333.5 8.42727 340.75 12.2569 344.375 14.1717L348 16.0865" stroke="#2CBA65" stroke-width="2"/>
<g filter="url(#filter0_d_601_3153)">
<circle class="blink" cx="187" cy="33" r="9" fill="white"/>
<circle cx="187" cy="33" r="6" stroke="#2CBA65" stroke-width="6"/>
</g>
<defs>
<filter id="filter0_d_601_3153" x="147" y="0" width="80" height="80" filterUnits="userSpaceOnUse" color-interpolation-filters="sRGB">
<feFlood flood-opacity="0" result="BackgroundImageFix"/>
<feColorMatrix in="SourceAlpha" type="matrix" values="0 0 0 0 0 0 0 0 0 0 0 0 0 0 0 0 0 0 127 0" result="hardAlpha"/>
<feOffset dy="7"/>
<feGaussianBlur stdDeviation="15.5"/>
<feComposite in2="hardAlpha" operator="out"/>
<feColorMatrix type="matrix" values="0 0 0 0 0 0 0 0 0 0 0 0 0 0 0 0 0 0 1 0"/>
<feBlend mode="normal" in2="BackgroundImageFix" result="effect1_dropShadow_601_3153"/>
<feBlend mode="normal" in="SourceGraphic" in2="effect1_dropShadow_601_3153" result="shape"/>
</filter>
<linearGradient id="paint0_linear_601_3153" x1="3.503" y1="11" x2="3.503" y2="131" gradientUnits="userSpaceOnUse">
<stop stop-color="#51DD67"/>
<stop offset="1" stop-color="#51DD67" stop-opacity="0.01"/>
</linearGradient>
</defs>
</svg>
