<svg width="44" height="44" viewBox="0 0 44 44" fill="none" xmlns="http://www.w3.org/2000/svg">
<rect width="44" height="44" rx="11" fill="#D9E44F" fill-opacity="0.1"/>
<path opacity="0.5" d="M13.3775 15.0824C13 15.6203 13 17.2191 13 20.4167V21.9914C13 27.6294 17.239 30.3655 19.8986 31.5273C20.62 31.8424 20.9807 32 22 32C23.0193 32 23.38 31.8424 24.1014 31.5273C26.761 30.3655 31 27.6294 31 21.9914V20.4167C31 17.2191 31 15.6203 30.6225 15.0824C30.245 14.5445 28.7417 14.03 25.7351 13.0008L25.1623 12.8047C23.595 12.2682 22.8114 12 22 12C21.1886 12 20.405 12.2682 18.8377 12.8047L18.2649 13.0008C15.2583 14.03 13.755 14.5445 13.3775 15.0824Z" fill="#D9E44F"/>
<path d="M25.0595 20.4995C25.3353 20.1905 25.3085 19.7164 24.9995 19.4406C24.6905 19.1647 24.2164 19.1915 23.9406 19.5005L20.9286 22.8739L20.0595 21.9005C19.7836 21.5915 19.3095 21.5647 19.0005 21.8406C18.6915 22.1164 18.6647 22.5905 18.9406 22.8995L20.3691 24.4995C20.5114 24.6589 20.7149 24.75 20.9286 24.75C21.1422 24.75 21.3457 24.6589 21.488 24.4995L25.0595 20.4995Z" fill="#D9E44F"/>
</svg>
