<svg width="151" height="32" viewBox="0 0 151 32" fill="none" xmlns="http://www.w3.org/2000/svg">
<path d="M24.5355 13.6334L26.9021 16L16.5 26.4021L6.09791 16L8.612 13.4859L5.81339 10.6866L0.5 16L16.5 32L32.5 16L27.3341 10.8341L24.5355 13.6334Z" fill="url(#paint0_linear_649_4164)"/>
<path d="M18.3254 1.82539L16.5 0L14.6746 1.82539L16.5 3.65078L18.3254 1.82539Z" fill="url(#paint1_linear_649_4164)"/>
<path d="M19.2986 2.79861L16.5 5.59791L13.7014 2.79861L7.68191 8.81739L10.4812 11.6167L14.3365 7.76139L16.5 26.4021L18.6635 7.76139L22.6663 11.7642L25.4649 8.96487L19.2986 2.79861Z" fill="url(#paint2_linear_649_4164)"/>
<path d="M49.245 12.0308V9.71212H60.1607V12.0308H56.0941V23H53.3206V12.0308H49.245ZM59.9203 23V13.0296H62.5868V14.7776H62.6938C62.8781 14.1592 63.1843 13.6925 63.6124 13.3774C64.0404 13.0564 64.5309 12.8959 65.0838 12.8959C65.2265 12.8959 65.3752 12.9048 65.5297 12.9226C65.6903 12.9345 65.833 12.9583 65.9578 12.994V15.4375C65.827 15.3959 65.6457 15.3632 65.4138 15.3394C65.1879 15.3097 64.9768 15.2948 64.7806 15.2948C64.3823 15.2948 64.0226 15.384 63.7016 15.5624C63.3805 15.7348 63.1278 15.9785 62.9435 16.2936C62.7652 16.6028 62.676 16.9595 62.676 17.3638V23H59.9203ZM68.9725 23.1873C68.3423 23.1873 67.7745 23.0773 67.2691 22.8573C66.7697 22.6314 66.3773 22.2984 66.0919 21.8585C65.8066 21.4185 65.6639 20.8716 65.6639 20.2176C65.6639 19.6587 65.7649 19.195 65.9671 18.8264C66.1692 18.4518 66.4457 18.1486 66.7965 17.9167C67.1472 17.6848 67.5456 17.5095 67.9915 17.3906C68.4374 17.2716 68.91 17.1884 69.4095 17.1408C69.9862 17.0873 70.4499 17.0338 70.8007 16.9803C71.1514 16.9268 71.4071 16.8466 71.5676 16.7395C71.7341 16.6266 71.8173 16.466 71.8173 16.258V16.2134C71.8173 15.8031 71.6865 15.4851 71.4249 15.2591C71.1693 15.0332 70.8066 14.9203 70.3369 14.9203C69.8435 14.9203 69.4481 15.0302 69.1508 15.2502C68.8595 15.4643 68.6663 15.7377 68.5712 16.0707L66.0117 15.8656C66.1425 15.2591 66.3981 14.7359 66.7786 14.296C67.1591 13.8501 67.6496 13.5082 68.2501 13.2704C68.8565 13.0267 69.5581 12.9048 70.3548 12.9048C70.9077 12.9048 71.4368 12.9702 71.9422 13.101C72.4475 13.2318 72.8964 13.4339 73.2888 13.7074C73.6871 13.9749 74.0022 14.3227 74.2341 14.7508C74.466 15.1789 74.5819 15.6872 74.5819 16.2758V23H71.9511V21.6088H71.8798C71.7192 21.9239 71.5052 22.2003 71.2377 22.4382C70.9701 22.67 70.6491 22.8543 70.2745 22.9911C69.8999 23.1219 69.4659 23.1873 68.9725 23.1873ZM69.7662 21.2788C70.1705 21.2788 70.5272 21.1986 70.8363 21.038C71.1514 20.8716 71.3952 20.6516 71.5676 20.3781C71.746 20.0987 71.8352 19.7865 71.8352 19.4417V18.3805C71.7519 18.434 71.633 18.4845 71.4784 18.5321C71.3298 18.5796 71.1633 18.6212 70.979 18.6569C70.7947 18.6926 70.6104 18.7253 70.4261 18.755C70.2418 18.7788 70.0753 18.8026 69.9267 18.8264C69.5997 18.8739 69.3143 18.9512 69.0706 19.0582C68.8268 19.1593 68.6366 19.299 68.4998 19.4774C68.369 19.6498 68.3036 19.8668 68.3036 20.1284C68.3036 20.5029 68.4404 20.7883 68.7138 20.9845C68.9873 21.1807 69.3381 21.2788 69.7662 21.2788ZM79.4694 23.1605C78.7084 23.1605 78.0217 22.9643 77.4093 22.5719C76.7969 22.1795 76.3124 21.6028 75.9557 20.8418C75.5989 20.0749 75.4206 19.1385 75.4206 18.0327C75.4206 16.8911 75.6049 15.9399 75.9735 15.1789C76.3421 14.4179 76.8326 13.8501 77.445 13.4755C78.0573 13.095 78.7262 12.9048 79.4515 12.9048C80.0104 12.9048 80.4771 12.9999 80.8517 13.1902C81.2262 13.3745 81.5294 13.6063 81.7613 13.8858C81.9932 14.1652 82.1686 14.4417 82.2875 14.7151H82.3677V9.71212H85.1323V23H82.4123V21.4037H82.2875C82.1626 21.6772 81.9813 21.9506 81.7435 22.2241C81.5056 22.4917 81.1995 22.7146 80.8249 22.893C80.4563 23.0713 80.0044 23.1605 79.4694 23.1605ZM80.3344 20.9667C80.7803 20.9667 81.1578 20.8448 81.467 20.601C81.7821 20.3513 82.0199 20.0065 82.1804 19.5666C82.3469 19.1266 82.4302 18.6123 82.4302 18.0237C82.4302 17.4292 82.3499 16.9149 82.1894 16.4809C82.0288 16.041 81.791 15.7021 81.4759 15.4643C81.1608 15.2205 80.7803 15.0986 80.3344 15.0986C79.8826 15.0986 79.5021 15.2235 79.1929 15.4732C78.8837 15.7229 78.6489 16.0677 78.4884 16.5077C78.3279 16.9417 78.2476 17.447 78.2476 18.0237C78.2476 18.6004 78.3279 19.1117 78.4884 19.5576C78.6489 19.9976 78.8837 20.3424 79.1929 20.5921C79.508 20.8418 79.8885 20.9667 80.3344 20.9667ZM90.9205 23.1962C89.8979 23.1962 89.015 22.9881 88.2718 22.5719C87.5287 22.1558 86.9579 21.5642 86.5596 20.7972C86.1672 20.0243 85.971 19.1117 85.971 18.0594C85.971 17.0368 86.1672 16.1391 86.5596 15.3662C86.9579 14.5933 87.5168 13.9898 88.2362 13.5558C88.9615 13.1218 89.8117 12.9048 90.7867 12.9048C91.4467 12.9048 92.062 13.0118 92.6327 13.2258C93.2035 13.4339 93.7029 13.749 94.131 14.1711C94.559 14.5873 94.892 15.1135 95.1298 15.7496C95.3676 16.3798 95.4865 17.12 95.4865 17.9702V18.7193H87.0679V17.016H94.1488L92.8646 17.4619C92.8646 16.9565 92.7873 16.5166 92.6327 16.142C92.4782 15.7675 92.2463 15.4791 91.9371 15.277C91.6339 15.0689 91.2564 14.9648 90.8046 14.9648C90.3527 14.9648 89.9692 15.0689 89.6541 15.277C89.345 15.4851 89.1072 15.7675 88.9407 16.1242C88.7742 16.4809 88.691 16.8911 88.691 17.3549V18.5588C88.691 19.0998 88.7861 19.5636 88.9764 19.95C89.1666 20.3305 89.4312 20.6248 89.7701 20.8329C90.1149 21.0351 90.5103 21.1361 90.9562 21.1361C91.2653 21.1361 91.5447 21.0915 91.7945 21.0024C92.0442 20.9132 92.2582 20.7824 92.4366 20.61C92.6209 20.4375 92.7576 20.2295 92.8468 19.9857L95.3973 20.1551C95.2725 20.7675 95.0109 21.3026 94.6126 21.7604C94.2202 22.2122 93.7118 22.566 93.0876 22.8216C92.4633 23.0713 91.7409 23.1962 90.9205 23.1962ZM102.3 23.1784C101.123 23.1784 100.068 22.9108 99.1344 22.3757C98.2009 21.8407 97.4637 21.0648 96.9227 20.0481C96.3817 19.0315 96.1111 17.8038 96.1111 16.365C96.1111 14.9143 96.3817 13.6806 96.9227 12.664C97.4697 11.6414 98.2099 10.8655 99.1433 10.3364C100.083 9.8013 101.135 9.53376 102.3 9.53376C103.073 9.53376 103.79 9.64375 104.45 9.86372C105.109 10.0778 105.692 10.3929 106.197 10.809C106.709 11.2193 107.125 11.7246 107.446 12.3251C107.767 12.9196 107.972 13.6004 108.061 14.3673H105.225C105.172 14.0047 105.065 13.6777 104.904 13.3864C104.75 13.095 104.545 12.8483 104.289 12.6462C104.039 12.444 103.751 12.2894 103.424 12.1824C103.103 12.0695 102.749 12.013 102.363 12.013C101.685 12.013 101.087 12.1854 100.57 12.5302C100.059 12.8691 99.6605 13.3626 99.3751 14.0106C99.0957 14.6527 98.956 15.4375 98.956 16.365C98.956 17.3103 99.0987 18.107 99.3841 18.755C99.6694 19.3971 100.068 19.8817 100.579 20.2087C101.09 20.5356 101.682 20.6991 102.354 20.6991C102.728 20.6991 103.076 20.6486 103.397 20.5475C103.718 20.4465 104.004 20.3008 104.253 20.1106C104.503 19.9203 104.711 19.6884 104.878 19.4149C105.05 19.1355 105.166 18.8174 105.225 18.4607H108.061C107.99 19.0731 107.809 19.6617 107.517 20.2265C107.232 20.7913 106.843 21.2967 106.349 21.7426C105.856 22.1825 105.27 22.5333 104.592 22.7949C103.914 23.0505 103.15 23.1784 102.3 23.1784ZM113.573 23.1962C112.568 23.1962 111.697 22.9822 110.96 22.5541C110.229 22.1201 109.664 21.5196 109.266 20.7527C108.873 19.9798 108.677 19.082 108.677 18.0594C108.677 17.0249 108.873 16.1242 109.266 15.3572C109.664 14.5843 110.229 13.9839 110.96 13.5558C111.697 13.1218 112.568 12.9048 113.573 12.9048C114.584 12.9048 115.455 13.1218 116.186 13.5558C116.923 13.9839 117.488 14.5843 117.88 15.3572C118.279 16.1242 118.478 17.0249 118.478 18.0594C118.478 19.082 118.279 19.9798 117.88 20.7527C117.488 21.5196 116.923 22.1201 116.186 22.5541C115.455 22.9822 114.584 23.1962 113.573 23.1962ZM113.591 21.038C114.049 21.038 114.432 20.9102 114.741 20.6546C115.05 20.393 115.282 20.0362 115.437 19.5844C115.597 19.1325 115.678 18.6183 115.678 18.0416C115.678 17.4589 115.597 16.9446 115.437 16.4987C115.282 16.0528 115.05 15.7021 114.741 15.4464C114.432 15.1908 114.049 15.0629 113.591 15.0629C113.127 15.0629 112.738 15.1908 112.423 15.4464C112.113 15.7021 111.879 16.0528 111.718 16.4987C111.563 16.9446 111.486 17.4589 111.486 18.0416C111.486 18.6183 111.563 19.1325 111.718 19.5844C111.879 20.0362 112.113 20.393 112.423 20.6546C112.738 20.9102 113.127 21.038 113.591 21.038ZM119.334 23V13.0296H122.09V23H119.334ZM120.708 11.7543C120.298 11.7543 119.947 11.6176 119.655 11.3441C119.364 11.0706 119.219 10.7407 119.219 10.3542C119.219 9.96777 119.364 9.64077 119.655 9.37323C119.947 9.09974 120.298 8.963 120.708 8.963C121.124 8.963 121.478 9.09974 121.769 9.37323C122.06 9.64077 122.206 9.96777 122.206 10.3542C122.206 10.7407 122.06 11.0706 121.769 11.3441C121.478 11.6176 121.124 11.7543 120.708 11.7543ZM126.113 17.2389V23H123.357V13.0296H126.068V14.8043H126.166C126.392 14.2157 126.752 13.752 127.245 13.4131C127.739 13.0742 128.357 12.9048 129.1 12.9048C129.79 12.9048 130.39 13.0564 130.901 13.3596C131.419 13.6628 131.82 14.0938 132.105 14.6527C132.391 15.2116 132.533 15.8804 132.533 16.6593V23H129.778V17.1498C129.778 16.5433 129.62 16.0677 129.305 15.7229C128.99 15.3721 128.556 15.1967 128.003 15.1967C127.635 15.1967 127.308 15.2799 127.022 15.4464C126.737 15.6069 126.514 15.8388 126.353 16.142C126.193 16.4452 126.113 16.8109 126.113 17.2389ZM136.128 23H133.122L137.706 9.71212H141.327L145.902 23H142.906L139.57 12.7443H139.463L136.128 23ZM135.949 17.774H143.057V19.9679H135.949V17.774ZM146.527 23V13.0296H149.282V23H146.527ZM147.9 11.7543C147.49 11.7543 147.139 11.6176 146.848 11.3441C146.556 11.0706 146.411 10.7407 146.411 10.3542C146.411 9.96777 146.556 9.64077 146.848 9.37323C147.139 9.09974 147.49 8.963 147.9 8.963C148.316 8.963 148.67 9.09974 148.961 9.37323C149.253 9.64077 149.398 9.96777 149.398 10.3542C149.398 10.7407 149.253 11.0706 148.961 11.3441C148.67 11.6176 148.316 11.7543 147.9 11.7543Z" fill="white"/>
<defs>
<linearGradient id="paint0_linear_649_4164" x1="16.5" y1="0" x2="16.5" y2="32" gradientUnits="userSpaceOnUse">
<stop stop-color="#725BFF"/>
<stop offset="1" stop-color="#4791FF"/>
</linearGradient>
<linearGradient id="paint1_linear_649_4164" x1="16.5" y1="0" x2="16.5" y2="32" gradientUnits="userSpaceOnUse">
<stop stop-color="#725BFF"/>
<stop offset="1" stop-color="#4791FF"/>
</linearGradient>
<linearGradient id="paint2_linear_649_4164" x1="16.5" y1="0" x2="16.5" y2="32" gradientUnits="userSpaceOnUse">
<stop stop-color="#725BFF"/>
<stop offset="1" stop-color="#4791FF"/>
</linearGradient>
</defs>
</svg>
