<svg width="20" height="20" viewBox="0 0 20 20" fill="none" xmlns="http://www.w3.org/2000/svg">
<g clip-path="url(#clip0_13_1655)">
<circle cx="10.7693" cy="11.5384" r="6.92308" fill="white"/>
<path d="M19.4001 10.2818C19.5789 10.0372 19.7058 9.75857 19.773 9.46311C19.8402 9.16766 19.8463 8.86158 19.791 8.56367C19.7405 8.26369 19.6299 7.97701 19.4659 7.72082C19.3019 7.46462 19.0878 7.2442 18.8365 7.07276L17.5092 6.17276C17.4541 6.13474 17.4083 6.08473 17.3752 6.02648C17.3421 5.96822 17.3227 5.90324 17.3183 5.83639L17.2001 4.24549C17.1788 3.94222 17.096 3.64645 16.957 3.37611C16.8179 3.10576 16.6254 2.86648 16.391 2.67276C16.1586 2.47656 15.8893 2.32884 15.5989 2.23829C15.3085 2.14774 15.0029 2.11618 14.7001 2.14548L13.1183 2.30912C13.0498 2.31808 12.9801 2.31036 12.9152 2.28662C12.8504 2.26288 12.7922 2.22382 12.7456 2.17276L11.6274 1.0273C11.415 0.811368 11.1617 0.639872 10.8823 0.522809C10.6029 0.405747 10.3031 0.345459 10.0001 0.345459C9.69723 0.345459 9.39734 0.405747 9.11796 0.522809C8.83859 0.639872 8.5853 0.811368 8.37287 1.0273L7.25468 2.17276C7.20813 2.22382 7.14993 2.26288 7.08503 2.28662C7.02014 2.31036 6.95047 2.31808 6.88196 2.30912L5.30014 2.14548C4.99765 2.11681 4.69247 2.14859 4.40238 2.23898C4.11229 2.32938 3.84308 2.47657 3.61042 2.67201C3.37776 2.86744 3.1863 3.1072 3.04719 3.37734C2.90808 3.64747 2.8241 3.94258 2.80014 4.24549L2.68196 5.83639C2.67678 5.90532 2.6561 5.97218 2.62147 6.032C2.58684 6.09181 2.53915 6.14304 2.48196 6.18185L1.16378 7.08185C0.914085 7.25284 0.701043 7.47196 0.53714 7.72636C0.373236 7.98076 0.261769 8.26532 0.209273 8.56336C0.156778 8.8614 0.16431 9.16693 0.231428 9.46202C0.298546 9.75711 0.423899 10.0358 0.600139 10.2818L1.5365 11.5818C1.57592 11.638 1.60211 11.7023 1.61314 11.77C1.62416 11.8377 1.61971 11.907 1.60014 11.9728L1.16378 13.5091C1.08295 13.802 1.06142 14.108 1.10044 14.4093C1.13947 14.7106 1.23827 15.0011 1.39105 15.2637C1.54228 15.5266 1.74503 15.7564 1.98715 15.9391C2.22927 16.1219 2.50579 16.2539 2.80014 16.3273L4.34559 16.7182C4.41175 16.7348 4.4732 16.7664 4.52522 16.8106C4.57723 16.8547 4.61842 16.9102 4.64559 16.9728L5.30014 18.4273C5.42422 18.705 5.60281 18.9549 5.8253 19.1623C6.04779 19.3697 6.30966 19.5303 6.59538 19.6346C6.8811 19.7389 7.18485 19.7847 7.48861 19.7694C7.79238 19.7541 8.08999 19.678 8.36378 19.5455L9.80014 18.8546C9.86213 18.8232 9.93065 18.8068 10.0001 18.8068C10.0696 18.8068 10.1381 18.8232 10.2001 18.8546L11.6365 19.5455C11.942 19.6956 12.2779 19.7733 12.6183 19.7728C12.8848 19.7725 13.1493 19.7264 13.4001 19.6364C13.6862 19.5312 13.9485 19.3701 14.1717 19.1625C14.3948 18.9549 14.5745 18.705 14.7001 18.4273L15.3547 16.9728C15.3819 16.9102 15.423 16.8547 15.4751 16.8106C15.5271 16.7664 15.5885 16.7348 15.6547 16.7182L17.2001 16.3273C17.4944 16.2532 17.7708 16.1207 18.013 15.9378C18.2552 15.7549 18.4581 15.5252 18.6099 15.2624C18.7616 14.9996 18.8591 14.709 18.8965 14.4078C18.9338 14.1067 18.9103 13.8011 18.8274 13.5091L18.4001 11.9728C18.3806 11.907 18.3761 11.8377 18.3871 11.77C18.3982 11.7023 18.4244 11.638 18.4638 11.5818L19.4001 10.2818ZM14.1547 8.59094L9.9365 12.8091C9.55865 13.182 9.04916 13.391 8.51832 13.391C7.98748 13.391 7.47799 13.182 7.10014 12.8091L5.84559 11.5546C5.75269 11.4632 5.6789 11.3543 5.62853 11.2341C5.57817 11.1139 5.55223 10.9849 5.55223 10.8546C5.55223 10.7243 5.57817 10.5953 5.62853 10.4751C5.6789 10.3549 5.75269 10.2459 5.84559 10.1546C6.03241 9.97113 6.28377 9.86835 6.54559 9.86835C6.80742 9.86835 7.05878 9.97113 7.24559 10.1546L8.50014 11.4091L12.7638 7.19094C12.9494 7.00649 13.2007 6.90335 13.4624 6.9042C13.7241 6.90506 13.9748 7.00983 14.1592 7.19549C14.3437 7.38114 14.4468 7.63246 14.446 7.89415C14.4451 8.15585 14.3403 8.40649 14.1547 8.59094Z" fill="#3D8AFF"/>
</g>
<defs>
<clipPath id="clip0_13_1655">
<rect width="20" height="20" fill="white"/>
</clipPath>
</defs>
</svg>
